<?xml version="1.0" encoding="utf-8"?>
<!-- Generator: Adobe Illustrator 19.2.1, SVG Export Plug-In . SVG Version: 6.00 Build 0)  -->
<!DOCTYPE svg PUBLIC "-//W3C//DTD SVG 1.1//EN" "http://www.w3.org/Graphics/SVG/1.1/DTD/svg11.dtd">
<svg version="1.1" id="Layer_1" xmlns="http://www.w3.org/2000/svg" xmlns:xlink="http://www.w3.org/1999/xlink" x="0px" y="0px"
	 width="516.8px" height="635.9px" viewBox="0 0 516.8 635.9" style="enable-background:new 0 0 516.8 635.9;" xml:space="preserve"
	>
<style type="text/css">
	.st0{opacity:0.88;fill:#FFFFFF;stroke:#FFFFFF;stroke-miterlimit:10;enable-background:new    ;}
	.st1{fill:#7FBB42;}
	.st2{fill:#FFFFFF;}
	.st3{fill:#FFFFFF;stroke:#FFFFFF;stroke-miterlimit:10;}
	.st4{fill:#C4D82E;stroke:#C4D82E;stroke-miterlimit:10;}
	.st5{fill:#009B9B;stroke:#009B9B;stroke-miterlimit:10;}
	.st6{fill:#009B9B;}
</style>
<path class="st0" d="M482,448.7l10.9-20.4c0.5-1,1.5-1.6,2.6-1.6c4.7,0,17,1.3,20.6,12.7c0.2,0.8,0.2,1.6-0.2,2.4l-23.3,42.9
	c-0.5,0.9-1.3,1.5-2.3,1.5c-1,0.1-2.4,0.1-4.4-0.1c-1.1-0.1-2.2,0.4-2.8,1.4L472.9,504c-0.2,0.4-0.4,0.8-0.4,1.3v0.1
	c-0.2,1.9-2.1,3-3.9,2.4c-1.7-0.6-4.2-1.7-5.4-3.4c-0.4-0.5-0.5-1.2-0.5-1.9c0.1-0.9,0.4-2.2,1.5-2.4c0.9-0.1,1.8-0.6,2.2-1.5
	l6.7-14.3c0.4-0.8,0.4-1.7,0-2.5l-2.9-6.3c-0.4-0.8-0.4-1.7,0-2.5L482,448.7L482,448.7z"/>
<g id="burp_2_">
	<path class="st1" d="M80.9,60.8c0,0,1.9-22.7,35.2-25.6c0,0,26.8-37.3,73.7-35.1c0,0,39,0.4,55,18.3c0,0,31.5-25.2,75.2-15.7
		c0,0,33.8,4.8,52.1,33.3c0,0,44.2-5.1,65.3,42.4c0,0,37.6,16.5,37.1,47.9c0,0,1.9,19.3-21.6,36.1c0,0,19.3,28.9-12.2,56.7
		c0,0-30.5,33.6-99.6,19.4c0,0-9.9,25.2-51.2,19.7c0,0-26.3,32.2-76.6,30c0,0-64.3-3.3-71.9-45.3c0,0-24.9,24.5-60.6,8.8
		c0,0-32.9-11-29.6-42.8c0,0-50.7-10.4-51.2-46.5c0,0-3.3-31.8,21.6-43.8c0,0-20.7-20.1,4.7-43.5C26.4,75.1,47.1,54.9,80.9,60.8
		L80.9,60.8z"/>
	<path class="st1" d="M242.2,238.1c0,0-4.7,9.3,0.7,19.7c2.1,4.1,5.4,7.3,9.4,9.6c5.6,3.2,16.8,11,20.6,23.7
		c1.4,4.7,3.9,9.1,7.5,12.6c1.6,1.6,3.6,3.1,5.9,4.4c0,0,14.7,8.1,14.8,20.4c0,5.6,3.2,10.8,8.2,13.5c0.1,0,0.2,0.1,0.3,0.1
		c0,0,14.8,8.7,14.5,25.7c0,0-0.2,1.2-1.3-0.3c0,0-6.5-17.4-13.9-20c0,0-0.1,0-0.3-0.1c-8-3.1-14.3-9.4-17.4-17.4
		c-1.8-4.6-6-11.5-15.6-16c0,0-14.5-7.8-19.4-17.7c-0.8-1.6-1.3-3.4-1.5-5.2c-0.4-2.4-4.5-10.6-16.4-16.1c0,0-15.4-7.1-17.8-25
		c0,0-0.4-7,3.2-10C223.5,239.9,235.9,233.5,242.2,238.1L242.2,238.1z"/>
</g>
<g>
	<path class="st2" d="M123.5,56.7c-0.1-1.7-0.2-3.7-0.2-5.2h-0.1c-0.4,1.4-0.9,2.9-1.5,4.6l-2.1,5.9h-1.2l-2-5.8
		c-0.6-1.7-1.1-3.3-1.4-4.7c0,1.5-0.1,3.5-0.2,5.4l-0.3,5.2H113l0.8-12.1h2l2.1,5.9c0.5,1.5,0.9,2.8,1.2,4.1h0.1
		c0.3-1.2,0.7-2.6,1.3-4.1l2.2-5.9h2l0.8,12.1H124C124,62.1,123.5,56.7,123.5,56.7z"/>
	<path class="st2" d="M134,56.3h-4.7v4.4h5.3V62h-6.8V49.8h6.6v1.3h-5V55h4.7v1.3H134z"/>
	<path class="st2" d="M139.2,51.2h-3.7v-1.3h9v1.3h-3.7V62h-1.6V51.2z"/>
	<path class="st2" d="M146.4,58.2l-1.3,3.8h-1.6l4.1-12.1h1.9l4.1,12.1H152l-1.3-3.8H146.4z M150.4,56.9l-1.2-3.5
		c-0.3-0.8-0.5-1.5-0.6-2.2l-0.6,2.2l-1.2,3.5H150.4z"/>
	<path class="st2" d="M155.5,50c0.7-0.1,1.8-0.3,2.9-0.3c1.6,0,2.6,0.3,3.3,0.9c0.6,0.5,1,1.2,1,2.1c0,1.2-0.8,2.2-2.1,2.7
		c1.2,0.3,2.5,1.2,2.5,3c0,1-0.4,1.8-1,2.4c-0.8,0.8-2.2,1.1-4.2,1.1c-1.1,0-1.9-0.1-2.4-0.1V50z M157,55h1.4c1.7,0,2.6-0.9,2.6-2
		c0-1.4-1.1-2-2.7-2c-0.7,0-1.1,0.1-1.4,0.1L157,55L157,55z M157,60.8c0.3,0.1,0.8,0.1,1.3,0.1c1.6,0,3.1-0.6,3.1-2.4
		c0-1.7-1.4-2.3-3.1-2.3H157C157,56.2,157,60.8,157,60.8z"/>
	<path class="st2" d="M175.6,55.8c0,4.2-2.5,6.4-5.6,6.4c-3.2,0-5.5-2.5-5.5-6.2c0-3.9,2.4-6.4,5.6-6.4
		C173.5,49.6,175.6,52.2,175.6,55.8z M166.2,56c0,2.6,1.4,4.9,3.9,4.9s3.9-2.3,3.9-5c0-2.4-1.3-4.9-3.9-4.9
		C167.5,50.9,166.2,53.3,166.2,56z"/>
	<path class="st2" d="M177.6,49.8h1.6v10.8h5.2V62h-6.8V49.8z"/>
	<path class="st2" d="M187.7,49.8V62h-1.6V49.8H187.7z"/>
	<path class="st2" d="M190.2,60.1c0.7,0.4,1.7,0.8,2.8,0.8c1.6,0,2.5-0.8,2.5-2.1c0-1.1-0.6-1.8-2.3-2.4c-2-0.7-3.2-1.7-3.2-3.4
		c0-1.9,1.6-3.3,3.9-3.3c1.2,0,2.1,0.3,2.7,0.6l-0.4,1.3c-0.4-0.2-1.2-0.6-2.3-0.6c-1.7,0-2.3,1-2.3,1.8c0,1.1,0.7,1.7,2.4,2.3
		c2.1,0.8,3.1,1.8,3.1,3.6c0,1.9-1.4,3.5-4.2,3.5c-1.2,0-2.4-0.3-3.1-0.8L190.2,60.1L190.2,60.1z"/>
	<path class="st2" d="M209.5,56.7c-0.1-1.7-0.2-3.7-0.2-5.2h-0.1c-0.4,1.4-0.9,2.9-1.5,4.6l-2.1,5.9h-1.2l-2-5.8
		c-0.6-1.7-1.1-3.3-1.4-4.7c0,1.5-0.1,3.5-0.2,5.4l-0.3,5.2H199l0.8-12.1h2l2.1,5.9c0.5,1.5,0.9,2.8,1.2,4.1h0.1
		c0.3-1.2,0.7-2.6,1.3-4.1l2.2-5.9h2l0.8,12.1H210C210,62.1,209.5,56.7,209.5,56.7z"/>
	<path class="st2" d="M309.9,78v5.6c0,2.1,0.9,3,2.2,3c1.4,0,2.3-0.9,2.3-3V78h1.2v5.5c0,2.9-1.5,4.1-3.6,4.1c-1.9,0-3.4-1.1-3.4-4
		V78H309.9z"/>
	<path class="st2" d="M317.7,82.5c0-0.7,0-1.3-0.1-1.8h1.1l0.1,1.1c0.3-0.6,1.1-1.3,2.2-1.3c0.9,0,2.4,0.6,2.4,2.9v4h-1.2v-3.9
		c0-1.1-0.4-2-1.6-2c-0.8,0-1.4,0.6-1.7,1.3c-0.1,0.2-0.1,0.4-0.1,0.6v4.1h-1.2v-5L317.7,82.5z"/>
	<path class="st2" d="M331.3,77.5v8.2c0,0.6,0,1.3,0.1,1.8h-1.1l-0.1-1.2c-0.4,0.8-1.2,1.3-2.3,1.3c-1.6,0-2.9-1.4-2.9-3.4
		c0-2.3,1.4-3.6,3-3.6c1,0,1.7,0.5,2,1v-4h1.3V77.5z M330.1,83.4c0-0.2,0-0.4-0.1-0.5c-0.2-0.8-0.9-1.4-1.8-1.4c-1.3,0-2,1.1-2,2.6
		c0,1.4,0.7,2.5,2,2.5c0.8,0,1.6-0.5,1.8-1.5c0-0.2,0.1-0.3,0.1-0.5V83.4z"/>
	<path class="st2" d="M334.1,84.2c0,1.7,1.1,2.4,2.3,2.4c0.9,0,1.4-0.2,1.9-0.4l0.2,0.9c-0.4,0.2-1.2,0.4-2.3,0.4
		c-2.1,0-3.3-1.4-3.3-3.4s1.2-3.7,3.2-3.7c2.2,0,2.8,1.9,2.8,3.2v0.6H334.1L334.1,84.2z M337.7,83.3c0-0.8-0.3-2-1.7-2
		c-1.2,0-1.8,1.1-1.9,2H337.7z"/>
	<path class="st2" d="M340.4,82.7c0-0.8,0-1.5-0.1-2.1h1.1v1.3h0.1c0.3-0.9,1-1.5,1.9-1.5h0.3v1.2h-0.4c-0.9,0-1.5,0.7-1.7,1.6
		c0,0.2-0.1,0.4-0.1,0.6v3.6h-1.2v-4.7H340.4z"/>
	<path class="st2" d="M344.8,86.1c0.4,0.2,1,0.5,1.6,0.5c0.9,0,1.3-0.4,1.3-1s-0.3-0.9-1.3-1.2c-1.2-0.4-1.8-1.1-1.8-1.9
		c0-1.1,0.9-2,2.3-2c0.7,0,1.3,0.2,1.7,0.4l-0.3,0.9c-0.3-0.2-0.8-0.4-1.4-0.4c-0.7,0-1.1,0.4-1.1,0.9c0,0.6,0.4,0.8,1.3,1.1
		c1.2,0.4,1.8,1,1.8,2c0,1.2-0.9,2-2.5,2c-0.7,0-1.4-0.2-1.9-0.5L344.8,86.1z"/>
	<path class="st2" d="M352,78.7v1.9h1.8v0.9H352v3.7c0,0.8,0.2,1.3,0.9,1.3c0.3,0,0.6,0,0.7-0.1l0.1,0.9c-0.2,0.1-0.6,0.2-1.1,0.2
		c-0.6,0-1-0.2-1.3-0.5c-0.4-0.4-0.5-1-0.5-1.8v-3.7h-1.1v-0.9h1.1V79L352,78.7L352,78.7z"/>
	<path class="st2" d="M358.9,87.4l-0.1-0.9c-0.4,0.5-1.1,1-2.1,1c-1.4,0-2.1-1-2.1-1.9c0-1.6,1.5-2.5,4.1-2.5V83
		c0-0.6-0.2-1.6-1.5-1.6c-0.6,0-1.3,0.2-1.8,0.5l-0.3-0.8c0.6-0.4,1.4-0.6,2.2-0.6c2.1,0,2.6,1.4,2.6,2.8v2.5c0,0.6,0,1.2,0.1,1.6
		H358.9L358.9,87.4z M358.7,83.9c-1.3,0-2.9,0.2-2.9,1.5c0,0.8,0.5,1.2,1.2,1.2c0.9,0,1.4-0.6,1.6-1.1c0-0.1,0.1-0.3,0.1-0.4
		L358.7,83.9L358.7,83.9z"/>
	<path class="st2" d="M361.9,82.5c0-0.7,0-1.3-0.1-1.8h1.1l0.1,1.1c0.3-0.6,1.1-1.3,2.2-1.3c0.9,0,2.4,0.6,2.4,2.9v4h-1.2v-3.9
		c0-1.1-0.4-2-1.6-2c-0.8,0-1.4,0.6-1.7,1.3c-0.1,0.2-0.1,0.4-0.1,0.6v4.1h-1.2v-5L361.9,82.5z"/>
	<path class="st2" d="M375.5,77.5v8.2c0,0.6,0,1.3,0.1,1.8h-1.1l-0.1-1.2c-0.4,0.8-1.2,1.3-2.3,1.3c-1.6,0-2.9-1.4-2.9-3.4
		c0-2.3,1.4-3.6,3-3.6c1,0,1.7,0.5,2,1v-4h1.3V77.5z M374.3,83.4c0-0.2,0-0.4-0.1-0.5c-0.2-0.8-0.9-1.4-1.8-1.4c-1.3,0-2,1.1-2,2.6
		c0,1.4,0.7,2.5,2,2.5c0.8,0,1.6-0.5,1.8-1.5c0-0.2,0.1-0.3,0.1-0.5V83.4z"/>
	<path class="st2" d="M378.9,78.7c0,0.4-0.3,0.8-0.8,0.8c-0.4,0-0.7-0.3-0.7-0.8c0-0.4,0.3-0.8,0.8-0.8
		C378.6,77.9,378.9,78.3,378.9,78.7z M377.6,87.4v-6.8h1.2v6.8H377.6z"/>
	<path class="st2" d="M380.8,82.5c0-0.7,0-1.3-0.1-1.8h1.1l0.1,1.1c0.3-0.6,1.1-1.3,2.2-1.3c0.9,0,2.4,0.6,2.4,2.9v4h-1.2v-3.9
		c0-1.1-0.4-2-1.6-2c-0.8,0-1.4,0.6-1.7,1.3c-0.1,0.2-0.1,0.4-0.1,0.6v4.1h-1.2v-5L380.8,82.5z"/>
	<path class="st2" d="M394.4,80.6c0,0.5-0.1,1-0.1,1.9v3.9c0,1.6-0.3,2.5-1,3.1s-1.6,0.8-2.5,0.8c-0.8,0-1.7-0.2-2.3-0.6l0.3-0.9
		c0.4,0.3,1.1,0.5,2,0.5c1.3,0,2.2-0.7,2.2-2.4v-0.8c-0.4,0.6-1.1,1.1-2.2,1.1c-1.7,0-2.9-1.4-2.9-3.3c0-2.3,1.5-3.6,3.1-3.6
		c1.2,0,1.8,0.6,2.1,1.2l0.1-1h1.2L394.4,80.6z M393.2,83.3c0-0.2,0-0.4-0.1-0.6c-0.2-0.7-0.8-1.3-1.7-1.3c-1.2,0-2,1-2,2.6
		c0,1.3,0.7,2.4,2,2.4c0.8,0,1.4-0.5,1.7-1.3c0.1-0.2,0.1-0.4,0.1-0.7V83.3z"/>
	<path class="st2" d="M400.9,78.7v1.9h1.8v0.9h-1.8v3.7c0,0.8,0.2,1.3,0.9,1.3c0.3,0,0.6,0,0.7-0.1l0.1,0.9
		c-0.2,0.1-0.6,0.2-1.1,0.2c-0.6,0-1-0.2-1.3-0.5c-0.4-0.4-0.5-1-0.5-1.8v-3.7h-1.1v-0.9h1.1V79L400.9,78.7L400.9,78.7z"/>
	<path class="st2" d="M404,77.5h1.2v4.2c0.2-0.4,0.5-0.7,0.9-0.9c0.4-0.2,0.8-0.4,1.3-0.4c0.9,0,2.4,0.6,2.4,2.9v4h-1.2v-3.9
		c0-1.1-0.4-2-1.6-2c-0.8,0-1.4,0.6-1.7,1.2c-0.1,0.2-0.1,0.4-0.1,0.6v4.1H404V77.5L404,77.5z"/>
	<path class="st2" d="M412.5,84.2c0,1.7,1.1,2.4,2.3,2.4c0.9,0,1.4-0.2,1.9-0.4l0.2,0.9c-0.4,0.2-1.2,0.4-2.3,0.4
		c-2.1,0-3.3-1.4-3.3-3.4s1.2-3.7,3.2-3.7c2.2,0,2.8,1.9,2.8,3.2v0.6H412.5L412.5,84.2z M416.1,83.3c0-0.8-0.3-2-1.7-2
		c-1.2,0-1.8,1.1-1.9,2H416.1z"/>
	<path class="st2" d="M341.5,99.6c0-0.9,0-1.6-0.1-2.2h1.1l0.1,1.2c0.5-0.8,1.3-1.3,2.4-1.3c1.6,0,2.9,1.4,2.9,3.4
		c0,2.4-1.5,3.6-3.1,3.6c-0.9,0-1.7-0.4-2.1-1.1v3.7h-1.2L341.5,99.6L341.5,99.6z M342.8,101.4c0,0.2,0,0.4,0.1,0.5
		c0.2,0.9,1,1.4,1.8,1.4c1.3,0,2.1-1.1,2.1-2.6c0-1.4-0.7-2.5-2-2.5c-0.8,0-1.6,0.6-1.9,1.5c0,0.2-0.1,0.3-0.1,0.5V101.4z"/>
	<path class="st2" d="M349.5,99.5c0-0.8,0-1.5-0.1-2.1h1.1v1.3h0.1c0.3-0.9,1-1.5,1.9-1.5h0.3v1.2h-0.4c-0.9,0-1.5,0.7-1.7,1.6
		c0,0.2-0.1,0.4-0.1,0.6v3.6h-1.2v-4.7H349.5z"/>
	<path class="st2" d="M360.1,100.8c0,2.5-1.7,3.6-3.4,3.6c-1.8,0-3.2-1.3-3.2-3.5c0-2.3,1.5-3.6,3.4-3.6S360.1,98.7,360.1,100.8z
		 M354.7,100.8c0,1.5,0.9,2.6,2.1,2.6s2.1-1.1,2.1-2.6c0-1.1-0.6-2.6-2-2.6S354.7,99.5,354.7,100.8z"/>
	<path class="st2" d="M366.5,103.9c-0.3,0.2-1,0.4-1.9,0.4c-2,0-3.4-1.4-3.4-3.5s1.4-3.6,3.6-3.6c0.7,0,1.4,0.2,1.7,0.4l-0.3,1
		c-0.3-0.2-0.8-0.3-1.4-0.3c-1.6,0-2.4,1.1-2.4,2.6c0,1.6,1,2.5,2.4,2.5c0.7,0,1.2-0.2,1.5-0.3L366.5,103.9L366.5,103.9z"/>
	<path class="st2" d="M368.5,101c0,1.7,1.1,2.4,2.3,2.4c0.9,0,1.4-0.2,1.9-0.4l0.2,0.9c-0.4,0.2-1.2,0.4-2.3,0.4
		c-2.1,0-3.3-1.4-3.3-3.4s1.2-3.7,3.2-3.7c2.2,0,2.8,1.9,2.8,3.2v0.6H368.5L368.5,101z M372.1,100.1c0-0.8-0.3-2-1.7-2
		c-1.2,0-1.8,1.1-1.9,2H372.1z"/>
	<path class="st2" d="M374.7,102.9c0.4,0.2,1,0.5,1.6,0.5c0.9,0,1.3-0.4,1.3-1s-0.3-0.9-1.3-1.2c-1.2-0.4-1.8-1.1-1.8-1.9
		c0-1.1,0.9-2,2.3-2c0.7,0,1.3,0.2,1.7,0.4l-0.3,0.9c-0.3-0.2-0.8-0.4-1.4-0.4c-0.7,0-1.1,0.4-1.1,0.9c0,0.6,0.4,0.8,1.3,1.1
		c1.2,0.4,1.8,1,1.8,2c0,1.2-0.9,2-2.5,2c-0.7,0-1.4-0.2-1.9-0.5L374.7,102.9z"/>
	<path class="st2" d="M380.2,102.9c0.4,0.2,1,0.5,1.6,0.5c0.9,0,1.3-0.4,1.3-1s-0.3-0.9-1.3-1.2c-1.2-0.4-1.8-1.1-1.8-1.9
		c0-1.1,0.9-2,2.3-2c0.7,0,1.3,0.2,1.7,0.4l-0.3,0.9c-0.3-0.2-0.8-0.4-1.4-0.4c-0.7,0-1.1,0.4-1.1,0.9c0,0.6,0.4,0.8,1.3,1.1
		c1.2,0.4,1.8,1,1.8,2c0,1.2-0.9,2-2.5,2c-0.7,0-1.4-0.2-1.9-0.5L380.2,102.9z"/>
	<path class="st3" d="M204.9,138.4c0,0-6.1-6.8-6.5-6.4c0,0-2.7-3.4-2.7-4.7c0,0,6.6-10.1,12.3-12.1c0,0,10.1-9.9-3.2-27.5
		c0,0-4.3-5.9-9.4-6.3c0,0-2.2-0.1-2.6-1.4c0,0-1.3,0.3-1.1,1.2c0,0-0.5-0.3-0.5-0.5c0,0-2,1.2-1.5,2.7c0,0-2.4,0-2.6,1.5
		c0,0-0.3,0.9-0.2,1.9c0,0-0.4,0.1-0.5-0.2c0,0-0.4,0.3,0,1.1c0,0-5.2,2.2-6.1,5.6c0,0-0.1,0.3-1,0.5c0,0-6.2,0.5-6.4,2.7
		c0,0-0.2,0.6,0.7,2.4c0,0,0.2,1.1-0.4,1.2c0,0-1.7-0.2-2,0.5L159,98.8c0,0-1.1-2.1-4.5-2.8v-2.2c0,0,0.1-1.5-1.5-1.7
		c0,0-1.2-0.2-1.8,0.8c0,0-2-1.8-3.3-0.7c0,0-2.8-2-4.3-0.2c0,0-2.5-0.5-3.7,1l-1.6,1.4l-3.3-0.1c0,0-0.6-0.3-0.9,0.9
		c0,0-0.9,3.3-0.7,9.4c0,0,0,0.2,0.3,0.2c0,0-9.7,16.2-11.7,30.5c0,0-0.4,1.2,4.6,4.7c0,0,6.9,6.2,37.1,6.8c0,0-4.4,11.5-2,22.6
		c0,0-0.1,4.4-1.4,7.5c0,0-14.3,12.9-9.7,31.5h54.2C204.9,208.4,216.9,146.3,204.9,138.4z M174.8,131.1c0,0-6.5-2.6-13.5-0.9
		c0,0-22.6,0-23.2-1.3c0,0,1.4-16.2,4.6-20.2c0,0,2.1,0.3,3-0.5c0,0,2,0.4,2.6,1.2c0,0,2.9,1.1,2.8-2.9c0,0,6.3,0.6,6.7-1.7h11.6
		v2.2c0,0-3.1,1.6-1.7,4.9c0,0,0,0.6,4.7,3.5c0,0,2,2.1,2.1,3.7c0,0-0.8,1.5,0.7,4.6C175.2,123.7,175.8,130.8,174.8,131.1z"/>
	<path class="st2" d="M222.9,103.3l-0.6,1.7h-0.7l1.8-5.4h0.8l1.8,5.4h-0.7l-0.6-1.7H222.9z M224.7,102.8l-0.5-1.6
		c-0.1-0.4-0.2-0.7-0.3-1c-0.1,0.3-0.2,0.6-0.3,1l-0.5,1.6H224.7z"/>
	<path class="st2" d="M226.9,99.4h0.7v5.7h-0.7V99.4z"/>
	<path class="st2" d="M231.5,104.9c-0.2,0.1-0.6,0.2-1.1,0.2c-1.2,0-1.9-0.8-1.9-2s0.8-2.1,2.1-2.1c0.4,0,0.8,0.1,1,0.2l-0.2,0.5
		c-0.2-0.1-0.4-0.2-0.8-0.2c-0.9,0-1.4,0.7-1.4,1.5c0,0.9,0.6,1.4,1.3,1.4c0.4,0,0.7-0.1,0.9-0.2L231.5,104.9L231.5,104.9z"/>
	<path class="st2" d="M235.8,103.1c0,1.4-1,2.1-1.9,2.1c-1,0-1.9-0.8-1.9-2c0-1.3,0.8-2.1,1.9-2.1
		C235.1,101.1,235.8,101.9,235.8,103.1z M232.7,103.1c0,0.8,0.5,1.5,1.2,1.5s1.2-0.6,1.2-1.5c0-0.7-0.3-1.5-1.2-1.5
		C233.1,101.6,232.7,102.4,232.7,103.1z"/>
	<path class="st2" d="M236.7,99.4h0.7v2.4c0.1-0.2,0.3-0.4,0.5-0.5s0.5-0.2,0.7-0.2c0.5,0,1.4,0.3,1.4,1.7v2.3h-0.7v-2.2
		c0-0.6-0.2-1.2-0.9-1.2c-0.5,0-0.8,0.3-0.9,0.7v2.6h-0.7v-5.6L236.7,99.4z"/>
	<path class="st2" d="M244.6,103.1c0,1.4-1,2.1-1.9,2.1c-1,0-1.9-0.8-1.9-2c0-1.3,0.8-2.1,1.9-2.1
		C243.9,101.1,244.6,101.9,244.6,103.1z M241.6,103.1c0,0.8,0.5,1.5,1.2,1.5s1.2-0.6,1.2-1.5c0-0.7-0.3-1.5-1.2-1.5
		S241.6,102.4,241.6,103.1z"/>
	<path class="st2" d="M245.5,99.4h0.7v5.7h-0.7V99.4z"/>
	<path class="st2" d="M249.9,100.1c0,0.2-0.2,0.4-0.4,0.4s-0.4-0.2-0.4-0.4s0.2-0.4,0.4-0.4C249.7,99.6,249.9,99.8,249.9,100.1z
		 M249.1,105v-3.9h0.7v3.9H249.1z"/>
	<path class="st2" d="M250.9,104.3c0.2,0.1,0.6,0.3,0.9,0.3c0.5,0,0.8-0.3,0.8-0.6s-0.2-0.5-0.7-0.7c-0.7-0.2-1-0.6-1-1.1
		c0-0.6,0.5-1.1,1.3-1.1c0.4,0,0.7,0.1,1,0.2l-0.2,0.5c-0.2-0.1-0.4-0.2-0.8-0.2s-0.6,0.2-0.6,0.5s0.2,0.5,0.7,0.7
		c0.7,0.3,1,0.6,1,1.2c0,0.7-0.5,1.2-1.4,1.2c-0.4,0-0.8-0.1-1.1-0.3L250.9,104.3z"/>
	<path class="st2" d="M225.2,109.7c0,0.2-0.2,0.4-0.4,0.4s-0.4-0.2-0.4-0.4s0.2-0.4,0.4-0.4C225,109.2,225.2,109.4,225.2,109.7z
		 M224.4,114.6v-3.9h0.7v3.9H224.4z"/>
	<path class="st2" d="M226.3,111.8v-1h0.6v0.6c0.2-0.4,0.6-0.7,1.3-0.7c0.5,0,1.4,0.3,1.4,1.6v2.3h-0.7v-2.2c0-0.6-0.2-1.1-0.9-1.1
		c-0.5,0-0.8,0.3-0.9,0.7v2.6h-0.7v-2.8H226.3z"/>
	<path class="st2" d="M234,110.8v3.3c0,0.9-0.2,1.4-0.6,1.8c-0.4,0.4-0.9,0.5-1.4,0.5s-1-0.1-1.3-0.3l0.2-0.5
		c0.3,0.2,0.7,0.3,1.1,0.3c0.7,0,1.2-0.4,1.2-1.4V114c-0.2,0.4-0.6,0.6-1.2,0.6c-1,0-1.6-0.8-1.6-1.9c0-1.3,0.9-2.1,1.7-2.1
		c0.7,0,1,0.4,1.2,0.7v-0.6L234,110.8L234,110.8z M233.3,112.3V112c-0.1-0.4-0.5-0.7-1-0.7c-0.7,0-1.2,0.6-1.2,1.5
		c0,0.8,0.4,1.4,1.1,1.4c0.4,0,0.8-0.3,1-0.7c0-0.1,0.1-0.3,0.1-0.4L233.3,112.3L233.3,112.3z"/>
	<path class="st2" d="M235.6,112.8c0,1,0.6,1.3,1.3,1.3c0.5,0,0.8-0.1,1.1-0.2l0.1,0.5c-0.2,0.1-0.7,0.2-1.3,0.2
		c-1.2,0-1.9-0.8-1.9-2s0.7-2.1,1.8-2.1c1.3,0,1.6,1.1,1.6,1.8v0.3h-2.7L235.6,112.8z M237.6,112.3c0-0.4-0.2-1.1-1-1.1
		c-0.7,0-1,0.7-1.1,1.1H237.6z"/>
	<path class="st2" d="M239.1,113.9c0.2,0.1,0.6,0.3,0.9,0.3c0.5,0,0.8-0.3,0.8-0.6s-0.2-0.5-0.7-0.7c-0.7-0.2-1-0.6-1-1.1
		c0-0.6,0.5-1.1,1.3-1.1c0.4,0,0.7,0.1,1,0.2l-0.2,0.5c-0.2-0.1-0.4-0.2-0.8-0.2s-0.6,0.2-0.6,0.5s0.2,0.5,0.7,0.7
		c0.7,0.3,1,0.6,1,1.2c0,0.7-0.5,1.2-1.4,1.2c-0.4,0-0.8-0.1-1.1-0.3L239.1,113.9z"/>
	<path class="st2" d="M243.2,109.7v1.1h1v0.5h-1v2.1c0,0.5,0.1,0.8,0.5,0.8h0.4v0.5c-0.1,0.1-0.4,0.1-0.6,0.1
		c-0.3,0-0.6-0.1-0.8-0.3c-0.2-0.2-0.3-0.6-0.3-1v-2.1h-0.6v-0.5h0.6V110L243.2,109.7L243.2,109.7z"/>
	<path class="st2" d="M245.3,112.8c0,1,0.6,1.3,1.3,1.3c0.5,0,0.8-0.1,1.1-0.2l0.1,0.5c-0.2,0.1-0.7,0.2-1.3,0.2
		c-1.2,0-1.9-0.8-1.9-2s0.7-2.1,1.8-2.1c1.3,0,1.6,1.1,1.6,1.8v0.3h-2.7L245.3,112.8z M247.4,112.3c0-0.4-0.2-1.1-1-1.1
		c-0.7,0-1,0.7-1.1,1.1H247.4z"/>
	<path class="st2" d="M252.3,109v5.7h-0.6V114c-0.2,0.4-0.7,0.8-1.3,0.8c-0.9,0-1.7-0.8-1.7-2c0-1.3,0.8-2.1,1.7-2.1
		c0.6,0,1,0.3,1.2,0.6V109H252.3L252.3,109z M251.6,112.3V112c-0.1-0.4-0.5-0.8-1-0.8c-0.7,0-1.2,0.6-1.2,1.5c0,0.8,0.4,1.4,1.1,1.4
		c0.5,0,0.9-0.3,1-0.8L251.6,112.3L251.6,112.3z"/>
	<path class="st2" d="M76,131.3l-0.6,1.7h-0.7l1.8-5.4h0.8l1.8,5.4h-0.7l-0.6-1.7H76z M77.7,130.8l-0.5-1.6c-0.1-0.4-0.2-0.7-0.3-1
		c-0.1,0.3-0.2,0.6-0.3,1l-0.5,1.6C76.1,130.8,77.7,130.8,77.7,130.8z"/>
	<path class="st2" d="M80,127.3h0.7v5.7H80V127.3z"/>
	<path class="st2" d="M84.6,132.9c-0.2,0.1-0.6,0.2-1.1,0.2c-1.2,0-1.9-0.8-1.9-2s0.8-2.1,2.1-2.1c0.4,0,0.8,0.1,1,0.2l-0.2,0.5
		c-0.2-0.1-0.4-0.2-0.8-0.2c-0.9,0-1.4,0.7-1.4,1.5c0,0.9,0.6,1.4,1.3,1.4c0.4,0,0.7-0.1,0.9-0.2L84.6,132.9L84.6,132.9z"/>
	<path class="st2" d="M88.9,131c0,1.4-1,2.1-1.9,2.1c-1,0-1.9-0.8-1.9-2c0-1.3,0.8-2.1,1.9-2.1S88.9,129.8,88.9,131z M85.8,131.1
		c0,0.8,0.5,1.5,1.2,1.5s1.2-0.6,1.2-1.5c0-0.7-0.3-1.5-1.2-1.5C86.2,129.6,85.8,130.3,85.8,131.1z"/>
	<path class="st2" d="M89.8,127.3h0.7v2.4c0.1-0.2,0.3-0.4,0.5-0.5s0.5-0.2,0.7-0.2c0.5,0,1.4,0.3,1.4,1.7v2.3h-0.7v-2.2
		c0-0.6-0.2-1.2-0.9-1.2c-0.5,0-0.8,0.3-0.9,0.7v2.6h-0.7L89.8,127.3L89.8,127.3z"/>
	<path class="st2" d="M97.7,131c0,1.4-1,2.1-1.9,2.1c-1,0-1.9-0.8-1.9-2c0-1.3,0.8-2.1,1.9-2.1C97,129,97.7,129.8,97.7,131z
		 M94.6,131.1c0,0.8,0.5,1.5,1.2,1.5s1.2-0.6,1.2-1.5c0-0.7-0.3-1.5-1.2-1.5C95,129.6,94.6,130.3,94.6,131.1z"/>
	<path class="st2" d="M98.6,127.3h0.7v5.7h-0.7V127.3z"/>
	<path class="st2" d="M103,128c0,0.2-0.2,0.4-0.4,0.4s-0.4-0.2-0.4-0.4s0.2-0.4,0.4-0.4S103,127.8,103,128z M102.2,133v-3.9h0.7v3.9
		H102.2z"/>
	<path class="st2" d="M104,132.3c0.2,0.1,0.6,0.3,0.9,0.3c0.5,0,0.8-0.3,0.8-0.6s-0.2-0.5-0.7-0.7c-0.7-0.2-1-0.6-1-1.1
		c0-0.6,0.5-1.1,1.3-1.1c0.4,0,0.7,0.1,1,0.2l-0.2,0.5c-0.2-0.1-0.4-0.2-0.8-0.2s-0.6,0.2-0.6,0.5s0.2,0.5,0.7,0.7
		c0.7,0.3,1,0.6,1,1.2c0,0.7-0.5,1.2-1.4,1.2c-0.4,0-0.8-0.1-1.1-0.3L104,132.3L104,132.3z"/>
	<path class="st2" d="M71.1,139.8v-1h0.6v0.6c0.2-0.4,0.6-0.7,1.2-0.7c0.5,0,0.9,0.3,1.1,0.8c0.1-0.2,0.3-0.4,0.4-0.5
		c0.2-0.2,0.5-0.3,0.9-0.3c0.5,0,1.3,0.3,1.3,1.7v2.3H76v-2.2c0-0.7-0.3-1.2-0.8-1.2c-0.4,0-0.7,0.3-0.8,0.6c0,0.1-0.1,0.2-0.1,0.4
		v2.4h-0.7v-2.3c0-0.6-0.3-1.1-0.8-1.1c-0.4,0-0.8,0.4-0.9,0.7c0,0.1-0.1,0.2-0.1,0.3v2.3h-0.7V139.8z"/>
	<path class="st2" d="M78.2,140.8c0,1,0.6,1.3,1.3,1.3c0.5,0,0.8-0.1,1.1-0.2l0.1,0.5c-0.2,0.1-0.7,0.2-1.3,0.2
		c-1.2,0-1.9-0.8-1.9-2s0.7-2.1,1.8-2.1c1.3,0,1.6,1.1,1.6,1.8v0.3h-2.7V140.8z M80.2,140.3c0-0.4-0.2-1.1-1-1.1
		c-0.7,0-1,0.7-1.1,1.1H80.2z"/>
	<path class="st2" d="M82.6,137.6v1.1h1v0.5h-1v2.1c0,0.5,0.1,0.8,0.5,0.8h0.4v0.5c-0.1,0.1-0.4,0.1-0.6,0.1c-0.3,0-0.6-0.1-0.8-0.3
		c-0.2-0.2-0.3-0.6-0.3-1v-2.1h-0.6v-0.5H82v-0.9L82.6,137.6L82.6,137.6z"/>
	<path class="st2" d="M86.6,142.6l-0.1-0.5c-0.2,0.3-0.6,0.6-1.2,0.6c-0.8,0-1.2-0.6-1.2-1.1c0-0.9,0.8-1.4,2.3-1.4v-0.1
		c0-0.3-0.1-0.9-0.9-0.9c-0.4,0-0.7,0.1-1,0.3l-0.2-0.5c0.3-0.2,0.8-0.3,1.3-0.3c1.2,0,1.5,0.8,1.5,1.6v1.4c0,0.3,0,0.7,0.1,0.9
		H86.6L86.6,142.6z M86.5,140.6c-0.8,0-1.6,0.1-1.6,0.9c0,0.5,0.3,0.7,0.7,0.7c0.5,0,0.8-0.3,0.9-0.6V140.6L86.5,140.6z"/>
	<path class="st2" d="M88.3,142.6v-5.7H89v2.4c0.2-0.4,0.7-0.7,1.3-0.7c1,0,1.6,0.8,1.6,2c0,1.4-0.9,2.1-1.7,2.1
		c-0.6,0-1-0.2-1.3-0.7v0.6L88.3,142.6L88.3,142.6z M89,141v0.3c0.1,0.5,0.5,0.8,1.1,0.8c0.7,0,1.2-0.6,1.2-1.5
		c0-0.8-0.4-1.4-1.2-1.4c-0.5,0-0.9,0.3-1.1,0.9V141z"/>
	<path class="st2" d="M96.4,140.6c0,1.4-1,2.1-1.9,2.1c-1,0-1.9-0.8-1.9-2c0-1.3,0.8-2.1,1.9-2.1S96.4,139.4,96.4,140.6z
		 M93.3,140.7c0,0.8,0.5,1.5,1.2,1.5s1.2-0.6,1.2-1.5c0-0.7-0.3-1.5-1.2-1.5C93.6,139.2,93.3,139.9,93.3,140.7z"/>
	<path class="st2" d="M97.2,136.9h0.7v5.7h-0.7V136.9z"/>
	<path class="st2" d="M99.9,137.6c0,0.2-0.2,0.4-0.4,0.4s-0.4-0.2-0.4-0.4s0.2-0.4,0.4-0.4S99.9,137.4,99.9,137.6z M99.1,142.6v-3.9
		h0.7v3.9H99.1z"/>
	<path class="st2" d="M100.6,142.2l1.8-2.3c0.2-0.2,0.3-0.4,0.5-0.6h-2.1v-0.6h3v0.4l-1.7,2.2c-0.2,0.2-0.3,0.4-0.5,0.6h2.3v0.6
		h-3.1v-0.3L100.6,142.2z"/>
	<path class="st2" d="M104.8,140.8c0,1,0.6,1.3,1.3,1.3c0.5,0,0.8-0.1,1.1-0.2l0.1,0.5c-0.2,0.1-0.7,0.2-1.3,0.2
		c-1.2,0-1.9-0.8-1.9-2s0.7-2.1,1.8-2.1c1.3,0,1.6,1.1,1.6,1.8v0.3h-2.7V140.8z M106.8,140.3c0-0.4-0.2-1.1-1-1.1
		c-0.7,0-1,0.7-1.1,1.1H106.8z"/>
	<path class="st2" d="M111.7,136.9v5.7h-0.6v-0.7c-0.2,0.4-0.7,0.8-1.3,0.8c-0.9,0-1.7-0.8-1.7-2c0-1.3,0.8-2.1,1.7-2.1
		c0.6,0,1,0.3,1.2,0.6v-2.3C111,136.9,111.7,136.9,111.7,136.9z M111,140.3V140c-0.1-0.4-0.5-0.8-1-0.8c-0.7,0-1.2,0.6-1.2,1.5
		c0,0.8,0.4,1.4,1.1,1.4c0.5,0,0.9-0.3,1-0.8L111,140.3L111,140.3z"/>
	<path class="st2" d="M222.2,155.6h2.9v0.6h-2.2v1.8h2v0.6h-2v2.4h-0.7V155.6L222.2,155.6z"/>
	<path class="st2" d="M227.9,160.9l-0.1-0.5c-0.2,0.3-0.6,0.6-1.2,0.6c-0.8,0-1.2-0.6-1.2-1.1c0-0.9,0.8-1.4,2.3-1.4v-0.1
		c0-0.3-0.1-0.9-0.9-0.9c-0.4,0-0.7,0.1-1,0.3l-0.2-0.5c0.3-0.2,0.8-0.3,1.3-0.3c1.2,0,1.5,0.8,1.5,1.6v1.4c0,0.3,0,0.7,0.1,0.9
		H227.9L227.9,160.9z M227.8,159c-0.8,0-1.6,0.1-1.6,0.9c0,0.5,0.3,0.7,0.7,0.7c0.5,0,0.8-0.3,0.9-0.6L227.8,159L227.8,159z"/>
	<path class="st2" d="M230.4,156v1.1h1v0.5h-1v2.1c0,0.5,0.1,0.8,0.5,0.8h0.4v0.5c-0.1,0.1-0.4,0.1-0.6,0.1c-0.3,0-0.6-0.1-0.8-0.3
		s-0.3-0.6-0.3-1v-2.1H229v-0.5h0.6v-0.9L230.4,156L230.4,156z"/>
	<path class="st2" d="M237.4,159c0,1.4-1,2.1-1.9,2.1c-1,0-1.9-0.8-1.9-2c0-1.3,0.8-2.1,1.9-2.1C236.7,157,237.4,157.8,237.4,159z
		 M234.3,159c0,0.8,0.5,1.5,1.2,1.5s1.2-0.6,1.2-1.5c0-0.7-0.3-1.5-1.2-1.5C234.7,157.5,234.3,158.3,234.3,159z"/>
	<path class="st2" d="M238.5,157.1l0.6,0.8c0.1,0.2,0.3,0.4,0.4,0.6c0.1-0.2,0.3-0.4,0.4-0.6l0.5-0.8h0.8l-1.3,1.9l1.4,2h-0.8
		l-0.6-0.9c-0.2-0.2-0.3-0.4-0.4-0.7c-0.1,0.2-0.3,0.4-0.4,0.7l-0.6,0.9h-0.8l1.4-2l-1.3-1.9H238.5L238.5,157.1z"/>
	<path class="st2" d="M242.7,156c0,0.2-0.2,0.4-0.4,0.4s-0.4-0.2-0.4-0.4s0.2-0.4,0.4-0.4C242.5,155.5,242.7,155.7,242.7,156z
		 M241.9,160.9V157h0.7v3.9H241.9z"/>
	<path class="st2" d="M247.1,155.3v5.7h-0.6v-0.7c-0.2,0.4-0.7,0.8-1.3,0.8c-0.9,0-1.7-0.8-1.7-2c0-1.3,0.8-2.1,1.7-2.1
		c0.6,0,1,0.3,1.2,0.6v-2.3H247.1L247.1,155.3z M246.4,158.7v-0.3c-0.1-0.4-0.5-0.8-1-0.8c-0.7,0-1.2,0.6-1.2,1.5
		c0,0.8,0.4,1.4,1.1,1.4c0.5,0,0.9-0.3,1-0.8L246.4,158.7L246.4,158.7z"/>
	<path class="st2" d="M249.1,156c0,0.2-0.2,0.4-0.4,0.4s-0.4-0.2-0.4-0.4s0.2-0.4,0.4-0.4C248.9,155.5,249.1,155.7,249.1,156z
		 M248.3,160.9V157h0.7v3.9H248.3z"/>
	<path class="st2" d="M249.7,160.5l1.8-2.3c0.2-0.2,0.3-0.4,0.5-0.6h-2.1V157h3v0.4l-1.7,2.2c-0.2,0.2-0.3,0.4-0.5,0.6h2.3v0.6h-3.1
		v-0.3L249.7,160.5z"/>
	<path class="st2" d="M255.7,160.9l-0.1-0.5c-0.2,0.3-0.6,0.6-1.2,0.6c-0.8,0-1.2-0.6-1.2-1.1c0-0.9,0.8-1.4,2.3-1.4v-0.1
		c0-0.3-0.1-0.9-0.9-0.9c-0.4,0-0.7,0.1-1,0.3l-0.2-0.5c0.3-0.2,0.8-0.3,1.3-0.3c1.2,0,1.5,0.8,1.5,1.6v1.4c0,0.3,0,0.7,0.1,0.9
		H255.7L255.7,160.9z M255.6,159c-0.8,0-1.6,0.1-1.6,0.9c0,0.5,0.3,0.7,0.7,0.7c0.5,0,0.8-0.3,0.9-0.6L255.6,159L255.6,159z"/>
	<path class="st2" d="M258.2,156v1.1h1v0.5h-1v2.1c0,0.5,0.1,0.8,0.5,0.8h0.4v0.5c-0.1,0.1-0.4,0.1-0.6,0.1c-0.3,0-0.6-0.1-0.8-0.3
		c-0.2-0.2-0.3-0.6-0.3-1v-2.1h-0.6v-0.5h0.6v-0.9L258.2,156L258.2,156z"/>
	<path class="st2" d="M260.8,156c0,0.2-0.2,0.4-0.4,0.4s-0.4-0.2-0.4-0.4s0.2-0.4,0.4-0.4C260.7,155.5,260.8,155.7,260.8,156z
		 M260,160.9V157h0.7v3.9H260z"/>
	<path class="st2" d="M265.4,159c0,1.4-1,2.1-1.9,2.1c-1,0-1.9-0.8-1.9-2c0-1.3,0.8-2.1,1.9-2.1C264.7,157,265.4,157.8,265.4,159z
		 M262.3,159c0,0.8,0.5,1.5,1.2,1.5s1.2-0.6,1.2-1.5c0-0.7-0.3-1.5-1.2-1.5C262.7,157.5,262.3,158.3,262.3,159z"/>
	<path class="st2" d="M266.3,158.1v-1h0.6v0.6c0.2-0.4,0.6-0.7,1.3-0.7c0.5,0,1.4,0.3,1.4,1.6v2.3h-0.7v-2.2c0-0.6-0.2-1.1-0.9-1.1
		c-0.5,0-0.8,0.3-0.9,0.7v2.6h-0.7L266.3,158.1L266.3,158.1z"/>
	<path class="st2" d="M238.3,169.8c0.2,0.1,0.6,0.3,0.9,0.3c0.5,0,0.8-0.3,0.8-0.6s-0.2-0.5-0.7-0.7c-0.7-0.2-1-0.6-1-1.1
		c0-0.6,0.5-1.1,1.3-1.1c0.4,0,0.7,0.1,1,0.2l-0.2,0.5c-0.2-0.1-0.4-0.2-0.8-0.2s-0.6,0.2-0.6,0.5s0.2,0.5,0.7,0.7
		c0.7,0.3,1,0.6,1,1.2c0,0.7-0.5,1.2-1.4,1.2c-0.4,0-0.8-0.1-1.1-0.3L238.3,169.8L238.3,169.8z"/>
	<path class="st2" d="M242.4,165.6v1.1h1v0.5h-1v2.1c0,0.5,0.1,0.8,0.5,0.8h0.4v0.5c-0.1,0.1-0.4,0.1-0.6,0.1
		c-0.3,0-0.6-0.1-0.8-0.3s-0.3-0.6-0.3-1v-2.1H241v-0.5h0.6v-0.9L242.4,165.6L242.4,165.6z"/>
	<path class="st2" d="M247.6,168.6c0,1.4-1,2.1-1.9,2.1c-1,0-1.9-0.8-1.9-2c0-1.3,0.8-2.1,1.9-2.1
		C246.9,166.6,247.6,167.4,247.6,168.6z M244.6,168.6c0,0.8,0.5,1.5,1.2,1.5s1.2-0.6,1.2-1.5c0-0.7-0.3-1.5-1.2-1.5
		S244.6,167.9,244.6,168.6z"/>
	<path class="st2" d="M248.5,167.9v-1.3h0.6v0.7c0.3-0.5,0.7-0.8,1.4-0.8c0.9,0,1.6,0.8,1.6,2c0,1.4-0.8,2.1-1.8,2.1
		c-0.5,0-1-0.2-1.2-0.6v2.1h-0.7L248.5,167.9L248.5,167.9z M249.2,169v0.3c0.1,0.5,0.6,0.8,1.1,0.8c0.7,0,1.2-0.6,1.2-1.5
		c0-0.8-0.4-1.4-1.2-1.4c-0.5,0-0.9,0.3-1.1,0.9V169z"/>
	<path class="st2" d="M253,169.8c0.2,0.1,0.6,0.3,0.9,0.3c0.5,0,0.8-0.3,0.8-0.6s-0.2-0.5-0.7-0.7c-0.7-0.2-1-0.6-1-1.1
		c0-0.6,0.5-1.1,1.3-1.1c0.4,0,0.7,0.1,1,0.2l-0.2,0.5c-0.2-0.1-0.4-0.2-0.8-0.2s-0.6,0.2-0.6,0.5s0.2,0.5,0.7,0.7
		c0.7,0.3,1,0.6,1,1.2c0,0.7-0.5,1.2-1.4,1.2c-0.4,0-0.8-0.1-1.1-0.3L253,169.8L253,169.8z"/>
	<path class="st2" d="M71.9,188.9l-1.4-5.4h0.7l0.6,2.7c0.2,0.7,0.3,1.3,0.4,1.9c0.1-0.5,0.3-1.2,0.4-1.9l0.7-2.7H74l0.7,2.7
		c0.2,0.6,0.3,1.3,0.4,1.8c0.1-0.6,0.3-1.2,0.4-1.9l0.7-2.7h0.7l-1.5,5.4h-0.7L74,186c-0.2-0.7-0.3-1.2-0.4-1.8
		c-0.1,0.5-0.2,1.1-0.4,1.8l-0.8,2.8L71.9,188.9L71.9,188.9z"/>
	<path class="st2" d="M77.9,187.1c0,1,0.6,1.3,1.3,1.3c0.5,0,0.8-0.1,1.1-0.2l0.1,0.5c-0.2,0.1-0.7,0.2-1.3,0.2
		c-1.2,0-1.9-0.8-1.9-2s0.7-2.1,1.8-2.1c1.3,0,1.6,1.1,1.6,1.8v0.3h-2.7V187.1z M80,186.6c0-0.4-0.2-1.1-1-1.1c-0.7,0-1,0.7-1.1,1.1
		H80z"/>
	<path class="st2" d="M82.3,183.9c0,0.2-0.2,0.4-0.4,0.4s-0.4-0.2-0.4-0.4s0.2-0.4,0.4-0.4C82.2,183.5,82.3,183.7,82.3,183.9z
		 M81.5,188.9V185h0.7v3.9H81.5z"/>
	<path class="st2" d="M86.7,185v3.3c0,0.9-0.2,1.4-0.6,1.8c-0.4,0.4-0.9,0.5-1.4,0.5s-1-0.1-1.3-0.3l0.2-0.5
		c0.3,0.2,0.7,0.3,1.1,0.3c0.7,0,1.2-0.4,1.2-1.4v-0.4c-0.2,0.4-0.6,0.6-1.2,0.6c-1,0-1.6-0.8-1.6-1.9c0-1.3,0.9-2.1,1.7-2.1
		c0.7,0,1,0.4,1.2,0.7V185L86.7,185L86.7,185z M86,186.6v-0.3c-0.1-0.4-0.5-0.7-1-0.7c-0.7,0-1.2,0.6-1.2,1.5c0,0.8,0.4,1.4,1.1,1.4
		c0.4,0,0.8-0.3,1-0.7c0-0.1,0.1-0.3,0.1-0.4V186.6z"/>
	<path class="st2" d="M87.9,183.2h0.7v2.4c0.1-0.2,0.3-0.4,0.5-0.5s0.5-0.2,0.7-0.2c0.5,0,1.4,0.3,1.4,1.7v2.3h-0.7v-2.2
		c0-0.6-0.2-1.2-0.9-1.2c-0.5,0-0.8,0.3-0.9,0.7v2.6H88L87.9,183.2L87.9,183.2z"/>
	<path class="st2" d="M93.1,183.9v1.1h1v0.5h-1v2.1c0,0.5,0.1,0.8,0.5,0.8H94v0.5c-0.1,0.1-0.4,0.1-0.6,0.1c-0.3,0-0.6-0.1-0.8-0.3
		c-0.2-0.2-0.3-0.6-0.3-1v-2.1h-0.6V185h0.6v-0.9L93.1,183.9L93.1,183.9z"/>
	<path class="st2" d="M100,185v3.3c0,0.9-0.2,1.4-0.6,1.8c-0.4,0.4-0.9,0.5-1.4,0.5s-1-0.1-1.3-0.3l0.2-0.5c0.3,0.2,0.7,0.3,1.1,0.3
		c0.7,0,1.2-0.4,1.2-1.4v-0.4c-0.2,0.4-0.6,0.6-1.2,0.6c-1,0-1.6-0.8-1.6-1.9c0-1.3,0.9-2.1,1.7-2.1c0.7,0,1,0.4,1.2,0.7V185
		L100,185L100,185z M99.2,186.6v-0.3c-0.1-0.4-0.5-0.7-1-0.7c-0.7,0-1.2,0.6-1.2,1.5c0,0.8,0.4,1.4,1.1,1.4c0.4,0,0.8-0.3,1-0.7
		c0-0.1,0.1-0.3,0.1-0.4V186.6z"/>
	<path class="st2" d="M103.2,188.9l-0.1-0.5c-0.2,0.3-0.6,0.6-1.2,0.6c-0.8,0-1.2-0.6-1.2-1.1c0-0.9,0.8-1.4,2.3-1.4v-0.1
		c0-0.3-0.1-0.9-0.9-0.9c-0.4,0-0.7,0.1-1,0.3l-0.2-0.5c0.3-0.2,0.8-0.3,1.3-0.3c1.2,0,1.5,0.8,1.5,1.6v1.4c0,0.3,0,0.7,0.1,0.9
		H103.2L103.2,188.9z M103.1,186.9c-0.8,0-1.6,0.1-1.6,0.9c0,0.5,0.3,0.7,0.7,0.7c0.5,0,0.8-0.3,0.9-0.6V186.9L103.1,186.9z"/>
	<path class="st2" d="M105.7,183.9c0,0.2-0.2,0.4-0.4,0.4s-0.4-0.2-0.4-0.4s0.2-0.4,0.4-0.4C105.6,183.5,105.7,183.7,105.7,183.9z
		 M105,188.9V185h0.7v3.9H105z"/>
	<path class="st2" d="M106.8,186.1v-1h0.6v0.6c0.2-0.4,0.6-0.7,1.3-0.7c0.5,0,1.4,0.3,1.4,1.6v2.3h-0.7v-2.2c0-0.6-0.2-1.1-0.9-1.1
		c-0.5,0-0.8,0.3-0.9,0.7v2.6h-0.7v-2.8L106.8,186.1z"/>
	<path class="st2" d="M115.1,188.9l-0.1-0.5c-0.2,0.3-0.6,0.6-1.2,0.6c-0.8,0-1.2-0.6-1.2-1.1c0-0.9,0.8-1.4,2.3-1.4v-0.1
		c0-0.3-0.1-0.9-0.9-0.9c-0.4,0-0.7,0.1-1,0.3l-0.2-0.5c0.3-0.2,0.8-0.3,1.3-0.3c1.2,0,1.5,0.8,1.5,1.6v1.4c0,0.3,0,0.7,0.1,0.9
		H115.1L115.1,188.9z M115,186.9c-0.8,0-1.6,0.1-1.6,0.9c0,0.5,0.3,0.7,0.7,0.7c0.5,0,0.8-0.3,0.9-0.6V186.9L115,186.9z"/>
	<path class="st2" d="M116.8,186.1v-1h0.6v0.6c0.2-0.4,0.6-0.7,1.3-0.7c0.5,0,1.4,0.3,1.4,1.6v2.3h-0.7v-2.2c0-0.6-0.2-1.1-0.9-1.1
		c-0.5,0-0.8,0.3-0.9,0.7v2.6h-0.7v-2.8L116.8,186.1z"/>
	<path class="st2" d="M124.6,183.2v5.7H124v-0.7c-0.2,0.4-0.7,0.8-1.3,0.8c-0.9,0-1.7-0.8-1.7-2c0-1.3,0.8-2.1,1.7-2.1
		c0.6,0,1,0.3,1.2,0.6v-2.3C123.9,183.2,124.6,183.2,124.6,183.2z M123.9,186.6v-0.3c-0.1-0.4-0.5-0.8-1-0.8c-0.7,0-1.2,0.6-1.2,1.5
		c0,0.8,0.4,1.4,1.1,1.4c0.5,0,0.9-0.3,1-0.8L123.9,186.6L123.9,186.6z"/>
	<path class="st2" d="M131,186.9c0,1.4-1,2.1-1.9,2.1c-1,0-1.9-0.8-1.9-2c0-1.3,0.8-2.1,1.9-2.1S131,185.7,131,186.9z M127.9,187
		c0,0.8,0.5,1.5,1.2,1.5s1.2-0.6,1.2-1.5c0-0.7-0.3-1.5-1.2-1.5C128.3,185.5,127.9,186.2,127.9,187z"/>
	<path class="st2" d="M131.9,186.2V185h0.6v0.8c0.2-0.5,0.6-0.8,1.1-0.8h0.2v0.7h-0.2c-0.5,0-0.8,0.4-0.9,0.9v2.4H132v-2.8
		L131.9,186.2z"/>
	<path class="st2" d="M70.1,197.8c0.2,0.1,0.6,0.3,0.9,0.3c0.5,0,0.8-0.3,0.8-0.6s-0.2-0.5-0.7-0.7c-0.7-0.2-1-0.6-1-1.1
		c0-0.6,0.5-1.1,1.3-1.1c0.4,0,0.7,0.1,1,0.2l-0.2,0.5c-0.2-0.1-0.4-0.2-0.8-0.2s-0.6,0.2-0.6,0.5s0.2,0.5,0.7,0.7
		c0.7,0.3,1,0.6,1,1.2c0,0.7-0.5,1.2-1.4,1.2c-0.4,0-0.8-0.1-1.1-0.3L70.1,197.8L70.1,197.8z"/>
	<path class="st2" d="M73.4,192.8h0.7v5.7h-0.7V192.8z"/>
	<path class="st2" d="M78.7,196.5c0,1.4-1,2.1-1.9,2.1c-1,0-1.9-0.8-1.9-2c0-1.3,0.8-2.1,1.9-2.1C78,194.5,78.7,195.3,78.7,196.5z
		 M75.7,196.6c0,0.8,0.5,1.5,1.2,1.5s1.2-0.6,1.2-1.5c0-0.7-0.3-1.5-1.2-1.5C76,195.1,75.7,195.8,75.7,196.6z"/>
	<path class="st2" d="M79.9,194.6l0.5,2l0.3,1.2l0.3-1.2l0.6-2h0.6l0.6,1.9c0.1,0.5,0.3,0.9,0.3,1.3c0.1-0.4,0.2-0.8,0.3-1.3
		l0.6-1.9h0.7l-1.2,3.9h-0.6l-0.6-1.8c-0.1-0.4-0.2-0.8-0.3-1.3c-0.1,0.5-0.2,0.9-0.4,1.3l-0.6,1.8h-0.6l-1.2-3.9
		C79.2,194.6,79.9,194.6,79.9,194.6z"/>
	<path class="st2" d="M85.8,196.7c0,1,0.6,1.3,1.3,1.3c0.5,0,0.8-0.1,1.1-0.2l0.1,0.5c-0.2,0.1-0.7,0.2-1.3,0.2
		c-1.2,0-1.9-0.8-1.9-2s0.7-2.1,1.8-2.1c1.3,0,1.6,1.1,1.6,1.8v0.3h-2.7V196.7z M87.8,196.2c0-0.4-0.2-1.1-1-1.1
		c-0.7,0-1,0.7-1.1,1.1H87.8z"/>
	<path class="st2" d="M92.7,192.8v5.7h-0.6v-0.7c-0.2,0.4-0.7,0.8-1.3,0.8c-0.9,0-1.7-0.8-1.7-2c0-1.3,0.8-2.1,1.7-2.1
		c0.6,0,1,0.3,1.2,0.6v-2.3C92,192.8,92.7,192.8,92.7,192.8z M92,196.2v-0.3c-0.1-0.4-0.5-0.8-1-0.8c-0.7,0-1.2,0.6-1.2,1.5
		c0,0.8,0.4,1.4,1.1,1.4c0.5,0,0.9-0.3,1-0.8L92,196.2L92,196.2z"/>
	<path class="st2" d="M95.6,195.7v-1h0.6v0.6c0.2-0.4,0.6-0.7,1.2-0.7c0.5,0,0.9,0.3,1.1,0.8c0.1-0.2,0.3-0.4,0.4-0.5
		c0.2-0.2,0.5-0.3,0.9-0.3c0.5,0,1.3,0.3,1.3,1.7v2.3h-0.7v-2.2c0-0.7-0.3-1.2-0.8-1.2c-0.4,0-0.7,0.3-0.8,0.6
		c0,0.1-0.1,0.2-0.1,0.4v2.4H98v-2.3c0-0.6-0.3-1.1-0.8-1.1c-0.4,0-0.8,0.4-0.9,0.7c0,0.1-0.1,0.2-0.1,0.3v2.3h-0.7L95.6,195.7
		L95.6,195.7z"/>
	<path class="st2" d="M102.7,196.7c0,1,0.6,1.3,1.3,1.3c0.5,0,0.8-0.1,1.1-0.2l0.1,0.5c-0.2,0.1-0.7,0.2-1.3,0.2
		c-1.2,0-1.9-0.8-1.9-2s0.7-2.1,1.8-2.1c1.3,0,1.6,1.1,1.6,1.8v0.3h-2.7V196.7z M104.7,196.2c0-0.4-0.2-1.1-1-1.1
		c-0.7,0-1,0.7-1.1,1.1H104.7z"/>
	<path class="st2" d="M107.1,193.5v1.1h1v0.5h-1v2.1c0,0.5,0.1,0.8,0.5,0.8h0.4v0.5c-0.1,0.1-0.4,0.1-0.6,0.1
		c-0.3,0-0.6-0.1-0.8-0.3c-0.2-0.2-0.3-0.6-0.3-1v-2.1h-0.6v-0.5h0.6v-0.9L107.1,193.5L107.1,193.5z"/>
	<path class="st2" d="M111.1,198.5L111,198c-0.2,0.3-0.6,0.6-1.2,0.6c-0.8,0-1.2-0.6-1.2-1.1c0-0.9,0.8-1.4,2.3-1.4V196
		c0-0.3-0.1-0.9-0.9-0.9c-0.4,0-0.7,0.1-1,0.3l-0.2-0.5c0.3-0.2,0.8-0.3,1.3-0.3c1.2,0,1.5,0.8,1.5,1.6v1.4c0,0.3,0,0.7,0.1,0.9
		H111.1L111.1,198.5z M111,196.5c-0.8,0-1.6,0.1-1.6,0.9c0,0.5,0.3,0.7,0.7,0.7c0.5,0,0.8-0.3,0.9-0.6V196.5L111,196.5z"/>
	<path class="st2" d="M112.7,198.5v-5.7h0.7v2.4c0.2-0.4,0.7-0.7,1.3-0.7c1,0,1.6,0.8,1.6,2c0,1.4-0.9,2.1-1.7,2.1
		c-0.6,0-1-0.2-1.3-0.7v0.6L112.7,198.5L112.7,198.5z M113.5,196.9v0.3c0.1,0.5,0.5,0.8,1.1,0.8c0.7,0,1.2-0.6,1.2-1.5
		c0-0.8-0.4-1.4-1.2-1.4c-0.5,0-0.9,0.3-1.1,0.9V196.9z"/>
	<path class="st2" d="M120.8,196.5c0,1.4-1,2.1-1.9,2.1c-1,0-1.9-0.8-1.9-2c0-1.3,0.8-2.1,1.9-2.1
		C120.1,194.5,120.8,195.3,120.8,196.5z M117.8,196.6c0,0.8,0.5,1.5,1.2,1.5s1.2-0.6,1.2-1.5c0-0.7-0.3-1.5-1.2-1.5
		C118.1,195.1,117.8,195.8,117.8,196.6z"/>
	<path class="st2" d="M121.7,192.8h0.7v5.7h-0.7V192.8z"/>
	<path class="st2" d="M124.4,193.5c0,0.2-0.2,0.4-0.4,0.4s-0.4-0.2-0.4-0.4s0.2-0.4,0.4-0.4S124.4,193.3,124.4,193.5z M123.6,198.5
		v-3.9h0.7v3.9H123.6z"/>
	<path class="st2" d="M125.4,197.8c0.2,0.1,0.6,0.3,0.9,0.3c0.5,0,0.8-0.3,0.8-0.6s-0.2-0.5-0.7-0.7c-0.7-0.2-1-0.6-1-1.1
		c0-0.6,0.5-1.1,1.3-1.1c0.4,0,0.7,0.1,1,0.2l-0.2,0.5c-0.2-0.1-0.4-0.2-0.8-0.2s-0.6,0.2-0.6,0.5s0.2,0.5,0.7,0.7
		c0.7,0.3,1,0.6,1,1.2c0,0.7-0.5,1.2-1.4,1.2c-0.4,0-0.8-0.1-1.1-0.3L125.4,197.8L125.4,197.8z"/>
	<path class="st2" d="M128.7,195.7v-1h0.6v0.6c0.2-0.4,0.6-0.7,1.2-0.7c0.5,0,0.9,0.3,1.1,0.8c0.1-0.2,0.3-0.4,0.4-0.5
		c0.2-0.2,0.5-0.3,0.9-0.3c0.5,0,1.3,0.3,1.3,1.7v2.3h-0.7v-2.2c0-0.7-0.3-1.2-0.8-1.2c-0.4,0-0.7,0.3-0.8,0.6
		c0,0.1-0.1,0.2-0.1,0.4v2.4h-0.7v-2.3c0-0.6-0.3-1.1-0.8-1.1c-0.4,0-0.8,0.4-0.9,0.7c0,0.1-0.1,0.2-0.1,0.3v2.3h-0.7v-2.8H128.7z"
		/>
	<path class="st2" d="M311.4,121.8h-1.6v-0.6h4v0.6h-1.6v4.8h-0.7L311.4,121.8L311.4,121.8z"/>
	<path class="st2" d="M314.3,120.9h0.7v2.4c0.1-0.2,0.3-0.4,0.5-0.5s0.5-0.2,0.7-0.2c0.5,0,1.4,0.3,1.4,1.7v2.3h-0.7v-2.2
		c0-0.6-0.2-1.2-0.9-1.2c-0.5,0-0.8,0.3-0.9,0.7v2.6h-0.7v-5.6L314.3,120.9z"/>
	<path class="st2" d="M319.1,124.8c0,1,0.6,1.3,1.3,1.3c0.5,0,0.8-0.1,1.1-0.2l0.1,0.5c-0.2,0.1-0.7,0.2-1.3,0.2
		c-1.2,0-1.9-0.8-1.9-2s0.7-2.1,1.8-2.1c1.3,0,1.6,1.1,1.6,1.8v0.3h-2.7V124.8z M321.2,124.3c0-0.4-0.2-1.1-1-1.1
		c-0.7,0-1,0.7-1.1,1.1H321.2z"/>
	<path class="st2" d="M324.4,126.6v-5.7h0.7v2.4c0.2-0.4,0.7-0.7,1.3-0.7c1,0,1.6,0.8,1.6,2c0,1.4-0.9,2.1-1.7,2.1
		c-0.6,0-1-0.2-1.3-0.7v0.6C325,126.6,324.4,126.6,324.4,126.6z M325.1,125v0.3c0.1,0.5,0.5,0.8,1.1,0.8c0.7,0,1.2-0.6,1.2-1.5
		c0-0.8-0.4-1.4-1.2-1.4c-0.5,0-0.9,0.3-1.1,0.9C325.1,124.1,325.1,125,325.1,125z"/>
	<path class="st2" d="M332.5,124.6c0,1.4-1,2.1-1.9,2.1c-1,0-1.9-0.8-1.9-2c0-1.3,0.8-2.1,1.9-2.1S332.5,123.4,332.5,124.6z
		 M329.4,124.7c0,0.8,0.5,1.5,1.2,1.5s1.2-0.6,1.2-1.5c0-0.7-0.3-1.5-1.2-1.5C329.8,123.2,329.4,123.9,329.4,124.7z"/>
	<path class="st2" d="M336.7,120.9v5.7h-0.6v-0.7c-0.2,0.4-0.7,0.8-1.3,0.8c-0.9,0-1.7-0.8-1.7-2c0-1.3,0.8-2.1,1.7-2.1
		c0.6,0,1,0.3,1.2,0.6v-2.3H336.7L336.7,120.9z M336,124.3V124c-0.1-0.4-0.5-0.8-1-0.8c-0.7,0-1.2,0.6-1.2,1.5
		c0,0.8,0.4,1.4,1.1,1.4c0.5,0,0.9-0.3,1-0.8v-1L336,124.3z"/>
	<path class="st2" d="M338.2,122.7l0.8,2.3c0.1,0.3,0.2,0.6,0.2,0.8c0.1-0.2,0.2-0.5,0.2-0.8l0.8-2.3h0.7l-1.1,2.8
		c-0.5,1.3-0.8,2-1.3,2.4c-0.3,0.3-0.7,0.4-0.9,0.5l-0.2-0.6l0.6-0.3c0.2-0.2,0.4-0.4,0.6-0.8c0-0.1,0.1-0.1,0.1-0.2v-0.2l-1.4-3.6
		H338.2L338.2,122.7z"/>
	<path class="st2" d="M346.1,126.5c-0.2,0.1-0.6,0.2-1.1,0.2c-1.2,0-1.9-0.8-1.9-2s0.8-2.1,2.1-2.1c0.4,0,0.8,0.1,1,0.2l-0.2,0.5
		c-0.2-0.1-0.4-0.2-0.8-0.2c-0.9,0-1.4,0.7-1.4,1.5c0,0.9,0.6,1.4,1.3,1.4c0.4,0,0.7-0.1,0.9-0.2L346.1,126.5z"/>
	<path class="st2" d="M349.1,126.6l-0.1-0.5c-0.2,0.3-0.6,0.6-1.2,0.6c-0.8,0-1.2-0.6-1.2-1.1c0-0.9,0.8-1.4,2.3-1.4v-0.1
		c0-0.3-0.1-0.9-0.9-0.9c-0.4,0-0.7,0.1-1,0.3l-0.2-0.5c0.3-0.2,0.8-0.3,1.3-0.3c1.2,0,1.5,0.8,1.5,1.6v1.4c0,0.3,0,0.7,0.1,0.9
		H349.1L349.1,126.6z M349,124.6c-0.8,0-1.6,0.1-1.6,0.9c0,0.5,0.3,0.7,0.7,0.7c0.5,0,0.8-0.3,0.9-0.6V124.6z"/>
	<path class="st2" d="M350.8,123.8v-1h0.6v0.6c0.2-0.4,0.6-0.7,1.3-0.7c0.5,0,1.4,0.3,1.4,1.6v2.3h-0.7v-2.2c0-0.6-0.2-1.1-0.9-1.1
		c-0.5,0-0.8,0.3-0.9,0.7v2.6h-0.7L350.8,123.8L350.8,123.8z"/>
	<path class="st2" d="M355.9,121.1c-0.2,0.7-0.5,1.5-0.8,1.9l-0.4,0.1c0.2-0.5,0.4-1.3,0.5-1.9L355.9,121.1L355.9,121.1z"/>
	<path class="st2" d="M357.4,121.6v1.1h1v0.5h-1v2.1c0,0.5,0.1,0.8,0.5,0.8h0.4v0.5c-0.1,0.1-0.4,0.1-0.6,0.1
		c-0.3,0-0.6-0.1-0.8-0.3c-0.2-0.2-0.3-0.6-0.3-1v-2.1H356v-0.5h0.6v-0.9C356.6,121.9,357.4,121.6,357.4,121.6z"/>
	<path class="st2" d="M360.8,125.9c0.2,0.1,0.6,0.3,0.9,0.3c0.5,0,0.8-0.3,0.8-0.6s-0.2-0.5-0.7-0.7c-0.7-0.2-1-0.6-1-1.1
		c0-0.6,0.5-1.1,1.3-1.1c0.4,0,0.7,0.1,1,0.2l-0.2,0.5c-0.2-0.1-0.4-0.2-0.8-0.2s-0.6,0.2-0.6,0.5s0.2,0.5,0.7,0.7
		c0.7,0.3,1,0.6,1,1.2c0,0.7-0.5,1.2-1.4,1.2c-0.4,0-0.8-0.1-1.1-0.3L360.8,125.9L360.8,125.9z"/>
	<path class="st2" d="M364.9,121.6v1.1h1v0.5h-1v2.1c0,0.5,0.1,0.8,0.5,0.8h0.4v0.5c-0.1,0.1-0.4,0.1-0.6,0.1
		c-0.3,0-0.6-0.1-0.8-0.3c-0.2-0.2-0.3-0.6-0.3-1v-2.1h-0.6v-0.5h0.6v-0.9C364.1,121.9,364.9,121.6,364.9,121.6z"/>
	<path class="st2" d="M370.2,124.6c0,1.4-1,2.1-1.9,2.1c-1,0-1.9-0.8-1.9-2c0-1.3,0.8-2.1,1.9-2.1S370.2,123.4,370.2,124.6z
		 M367.1,124.7c0,0.8,0.5,1.5,1.2,1.5s1.2-0.6,1.2-1.5c0-0.7-0.3-1.5-1.2-1.5C367.4,123.2,367.1,123.9,367.1,124.7z"/>
	<path class="st2" d="M371.1,123.9v-1.2h0.6v0.8c0.2-0.5,0.6-0.8,1.1-0.8h0.2v0.7h-0.2c-0.5,0-0.8,0.4-0.9,0.9v2.4h-0.7v-2.8H371.1z
		"/>
	<path class="st2" d="M374,124.8c0,1,0.6,1.3,1.3,1.3c0.5,0,0.8-0.1,1.1-0.2l0.1,0.5c-0.2,0.1-0.7,0.2-1.3,0.2c-1.2,0-1.9-0.8-1.9-2
		s0.7-2.1,1.8-2.1c1.3,0,1.6,1.1,1.6,1.8v0.3H374V124.8z M376,124.3c0-0.4-0.2-1.1-1-1.1c-0.7,0-1,0.7-1.1,1.1H376z"/>
	<path class="st2" d="M381.4,126.6l-0.1-0.5c-0.2,0.3-0.6,0.6-1.2,0.6c-0.8,0-1.2-0.6-1.2-1.1c0-0.9,0.8-1.4,2.3-1.4v-0.1
		c0-0.3-0.1-0.9-0.9-0.9c-0.4,0-0.7,0.1-1,0.3l-0.2-0.5c0.3-0.2,0.8-0.3,1.3-0.3c1.2,0,1.5,0.8,1.5,1.6v1.4c0,0.3,0,0.7,0.1,0.9
		H381.4L381.4,126.6z M381.3,124.6c-0.8,0-1.6,0.1-1.6,0.9c0,0.5,0.3,0.7,0.7,0.7c0.5,0,0.8-0.3,0.9-0.6V124.6z"/>
	<path class="st2" d="M383.1,120.9h0.7v5.7h-0.7V120.9z"/>
	<path class="st2" d="M387.8,126.5c-0.2,0.1-0.6,0.2-1.1,0.2c-1.2,0-1.9-0.8-1.9-2s0.8-2.1,2.1-2.1c0.4,0,0.8,0.1,1,0.2l-0.2,0.5
		c-0.2-0.1-0.4-0.2-0.8-0.2c-0.9,0-1.4,0.7-1.4,1.5c0,0.9,0.6,1.4,1.3,1.4c0.4,0,0.7-0.1,0.9-0.2L387.8,126.5z"/>
	<path class="st2" d="M392.1,124.6c0,1.4-1,2.1-1.9,2.1c-1,0-1.9-0.8-1.9-2c0-1.3,0.8-2.1,1.9-2.1S392.1,123.4,392.1,124.6z
		 M389,124.7c0,0.8,0.5,1.5,1.2,1.5s1.2-0.6,1.2-1.5c0-0.7-0.3-1.5-1.2-1.5C389.4,123.2,389,123.9,389,124.7z"/>
	<path class="st2" d="M393,120.9h0.7v2.4c0.1-0.2,0.3-0.4,0.5-0.5s0.5-0.2,0.7-0.2c0.5,0,1.4,0.3,1.4,1.7v2.3h-0.7v-2.2
		c0-0.6-0.2-1.2-0.9-1.2c-0.5,0-0.8,0.3-0.9,0.7v2.6H393L393,120.9L393,120.9z"/>
	<path class="st2" d="M400.9,124.6c0,1.4-1,2.1-1.9,2.1c-1,0-1.9-0.8-1.9-2c0-1.3,0.8-2.1,1.9-2.1
		C400.2,122.6,400.9,123.4,400.9,124.6z M397.8,124.7c0,0.8,0.5,1.5,1.2,1.5s1.2-0.6,1.2-1.5c0-0.7-0.3-1.5-1.2-1.5
		C398.2,123.2,397.8,123.9,397.8,124.7z"/>
	<path class="st2" d="M401.8,120.9h0.7v5.7h-0.7V120.9z"/>
	<path class="st2" d="M403.1,127.6c0.2-0.5,0.4-1.3,0.5-1.9l0.8-0.1c-0.2,0.7-0.5,1.6-0.8,1.9L403.1,127.6z"/>
	<path class="st2" d="M406.9,125.9c0.2,0.1,0.6,0.3,0.9,0.3c0.5,0,0.8-0.3,0.8-0.6s-0.2-0.5-0.7-0.7c-0.7-0.2-1-0.6-1-1.1
		c0-0.6,0.5-1.1,1.3-1.1c0.4,0,0.7,0.1,1,0.2l-0.2,0.5c-0.2-0.1-0.4-0.2-0.8-0.2s-0.6,0.2-0.6,0.5s0.2,0.5,0.7,0.7
		c0.7,0.3,1,0.6,1,1.2c0,0.7-0.5,1.2-1.4,1.2c-0.4,0-0.8-0.1-1.1-0.3L406.9,125.9L406.9,125.9z"/>
	<path class="st2" d="M413.6,124.6c0,1.4-1,2.1-1.9,2.1c-1,0-1.9-0.8-1.9-2c0-1.3,0.8-2.1,1.9-2.1
		C412.9,122.6,413.6,123.4,413.6,124.6z M410.6,124.7c0,0.8,0.5,1.5,1.2,1.5s1.2-0.6,1.2-1.5c0-0.7-0.3-1.5-1.2-1.5
		C410.9,123.2,410.6,123.9,410.6,124.7z"/>
	<path class="st2" d="M308.1,131.2c0,0.2-0.2,0.4-0.4,0.4s-0.4-0.2-0.4-0.4s0.2-0.4,0.4-0.4S308.1,131,308.1,131.2z M307.3,136.2
		v-3.9h0.7v3.9H307.3z"/>
	<path class="st2" d="M310,131.2v1.1h1v0.5h-1v2.1c0,0.5,0.1,0.8,0.5,0.8h0.4v0.5c-0.1,0.1-0.4,0.1-0.6,0.1c-0.3,0-0.6-0.1-0.8-0.3
		c-0.2-0.2-0.3-0.6-0.3-1v-2.1h-0.6v-0.5h0.6v-0.9L310,131.2L310,131.2z"/>
	<path class="st2" d="M313.5,133.4v-1h0.6v0.6c0.2-0.4,0.6-0.7,1.2-0.7c0.5,0,0.9,0.3,1.1,0.8c0.1-0.2,0.3-0.4,0.4-0.5
		c0.2-0.2,0.5-0.3,0.9-0.3c0.5,0,1.3,0.3,1.3,1.7v2.3h-0.7V134c0-0.7-0.3-1.2-0.8-1.2c-0.4,0-0.7,0.3-0.8,0.6c0,0.1-0.1,0.2-0.1,0.4
		v2.4h-0.7v-2.3c0-0.6-0.3-1.1-0.8-1.1c-0.4,0-0.8,0.4-0.9,0.7c0,0.1-0.1,0.2-0.1,0.3v2.3h-0.7v-2.7H313.5z"/>
	<path class="st2" d="M320.6,134.4c0,1,0.6,1.3,1.3,1.3c0.5,0,0.8-0.1,1.1-0.2l0.1,0.5c-0.2,0.1-0.7,0.2-1.3,0.2
		c-1.2,0-1.9-0.8-1.9-2s0.7-2.1,1.8-2.1c1.3,0,1.6,1.1,1.6,1.8v0.3h-2.7V134.4z M322.6,133.9c0-0.4-0.2-1.1-1-1.1
		c-0.7,0-1,0.7-1.1,1.1H322.6z"/>
	<path class="st2" d="M325,131.2v1.1h1v0.5h-1v2.1c0,0.5,0.1,0.8,0.5,0.8h0.4v0.5c-0.1,0.1-0.4,0.1-0.6,0.1c-0.3,0-0.6-0.1-0.8-0.3
		c-0.2-0.2-0.3-0.6-0.3-1v-2.1h-0.6v-0.5h0.6v-0.9L325,131.2L325,131.2z"/>
	<path class="st2" d="M329,136.2l-0.1-0.5c-0.2,0.3-0.6,0.6-1.2,0.6c-0.8,0-1.2-0.6-1.2-1.1c0-0.9,0.8-1.4,2.3-1.4v-0.1
		c0-0.3-0.1-0.9-0.9-0.9c-0.4,0-0.7,0.1-1,0.3l-0.2-0.5c0.3-0.2,0.8-0.3,1.3-0.3c1.2,0,1.5,0.8,1.5,1.6v1.4c0,0.3,0,0.7,0.1,0.9H329
		L329,136.2z M328.9,134.2c-0.8,0-1.6,0.1-1.6,0.9c0,0.5,0.3,0.7,0.7,0.7c0.5,0,0.8-0.3,0.9-0.6V134.2L328.9,134.2z"/>
	<path class="st2" d="M330.6,136.2v-5.7h0.7v2.4c0.2-0.4,0.7-0.7,1.3-0.7c1,0,1.6,0.8,1.6,2c0,1.4-0.9,2.1-1.7,2.1
		c-0.6,0-1-0.2-1.3-0.7v0.6L330.6,136.2L330.6,136.2z M331.4,134.6v0.3c0.1,0.5,0.5,0.8,1.1,0.8c0.7,0,1.2-0.6,1.2-1.5
		c0-0.8-0.4-1.4-1.2-1.4c-0.5,0-0.9,0.3-1.1,0.9V134.6z"/>
	<path class="st2" d="M338.7,134.2c0,1.4-1,2.1-1.9,2.1c-1,0-1.9-0.8-1.9-2c0-1.3,0.8-2.1,1.9-2.1C338,132.2,338.7,133,338.7,134.2z
		 M335.7,134.3c0,0.8,0.5,1.5,1.2,1.5s1.2-0.6,1.2-1.5c0-0.7-0.3-1.5-1.2-1.5C336,132.8,335.7,133.5,335.7,134.3z"/>
	<path class="st2" d="M339.6,130.5h0.7v5.7h-0.7V130.5z"/>
	<path class="st2" d="M342.3,131.2c0,0.2-0.2,0.4-0.4,0.4s-0.4-0.2-0.4-0.4s0.2-0.4,0.4-0.4S342.3,131,342.3,131.2z M341.5,136.2
		v-3.9h0.7v3.9H341.5z"/>
	<path class="st2" d="M342.9,135.8l1.8-2.3c0.2-0.2,0.3-0.4,0.5-0.6h-2.1v-0.6h3v0.4l-1.7,2.2c-0.2,0.2-0.3,0.4-0.5,0.6h2.3v0.6
		h-3.1v-0.3L342.9,135.8z"/>
	<path class="st2" d="M347.1,134.4c0,1,0.6,1.3,1.3,1.3c0.5,0,0.8-0.1,1.1-0.2l0.1,0.5c-0.2,0.1-0.7,0.2-1.3,0.2
		c-1.2,0-1.9-0.8-1.9-2s0.7-2.1,1.8-2.1c1.3,0,1.6,1.1,1.6,1.8v0.3h-2.7V134.4z M349.2,133.9c0-0.4-0.2-1.1-1-1.1
		c-0.7,0-1,0.7-1.1,1.1H349.2z"/>
	<path class="st2" d="M350.7,135.5c0.2,0.1,0.6,0.3,0.9,0.3c0.5,0,0.8-0.3,0.8-0.6s-0.2-0.5-0.7-0.7c-0.7-0.2-1-0.6-1-1.1
		c0-0.6,0.5-1.1,1.3-1.1c0.4,0,0.7,0.1,1,0.2l-0.2,0.5c-0.2-0.1-0.4-0.2-0.8-0.2s-0.6,0.2-0.6,0.5s0.2,0.5,0.7,0.7
		c0.7,0.3,1,0.6,1,1.2c0,0.7-0.5,1.2-1.4,1.2c-0.4,0-0.8-0.1-1.1-0.3L350.7,135.5L350.7,135.5z"/>
	<path class="st2" d="M356.4,131.2c0,0.2-0.2,0.4-0.4,0.4s-0.4-0.2-0.4-0.4s0.2-0.4,0.4-0.4S356.4,131,356.4,131.2z M355.6,136.2
		v-3.9h0.7v3.9H355.6z"/>
	<path class="st2" d="M358.3,131.2v1.1h1v0.5h-1v2.1c0,0.5,0.1,0.8,0.5,0.8h0.4v0.5c-0.1,0.1-0.4,0.1-0.6,0.1
		c-0.3,0-0.6-0.1-0.8-0.3c-0.2-0.2-0.3-0.6-0.3-1v-2.1H357v-0.5h0.6v-0.9L358.3,131.2L358.3,131.2z"/>
	<path class="st2" d="M361.8,133.5v-1.2h0.6v0.8c0.2-0.5,0.6-0.8,1.1-0.8h0.2v0.7h-0.2c-0.5,0-0.8,0.4-0.9,0.9v2.4h-0.7v-2.8
		L361.8,133.5z"/>
	<path class="st2" d="M365.3,131.2c0,0.2-0.2,0.4-0.4,0.4s-0.4-0.2-0.4-0.4s0.2-0.4,0.4-0.4S365.3,131,365.3,131.2z M364.5,136.2
		v-3.9h0.7v3.9H364.5z"/>
	<path class="st2" d="M369.7,132.3v3.3c0,0.9-0.2,1.4-0.6,1.8c-0.4,0.4-0.9,0.5-1.4,0.5s-1-0.1-1.3-0.3l0.2-0.5
		c0.3,0.2,0.7,0.3,1.1,0.3c0.7,0,1.2-0.4,1.2-1.4v-0.4c-0.2,0.4-0.6,0.6-1.2,0.6c-1,0-1.6-0.8-1.6-1.9c0-1.3,0.9-2.1,1.7-2.1
		c0.7,0,1,0.4,1.2,0.7v-0.6L369.7,132.3L369.7,132.3z M369,133.9v-0.3c-0.1-0.4-0.5-0.7-1-0.7c-0.7,0-1.2,0.6-1.2,1.5
		c0,0.8,0.4,1.4,1.1,1.4c0.4,0,0.8-0.3,1-0.7c0-0.1,0.1-0.3,0.1-0.4V133.9z"/>
	<path class="st2" d="M370.8,130.5h0.7v2.4c0.1-0.2,0.3-0.4,0.5-0.5s0.5-0.2,0.7-0.2c0.5,0,1.4,0.3,1.4,1.7v2.3h-0.7V134
		c0-0.6-0.2-1.2-0.9-1.2c-0.5,0-0.8,0.3-0.9,0.7v2.6h-0.7v-5.6H370.8z"/>
	<path class="st2" d="M376.1,131.2v1.1h1v0.5h-1v2.1c0,0.5,0.1,0.8,0.5,0.8h0.4v0.5c-0.1,0.1-0.4,0.1-0.6,0.1
		c-0.3,0-0.6-0.1-0.8-0.3c-0.2-0.2-0.3-0.6-0.3-1v-2.1h-0.6v-0.5h0.6v-0.9L376.1,131.2L376.1,131.2z"/>
	<path class="st2" d="M381.7,136.2l-0.1-0.5c-0.2,0.3-0.6,0.6-1.2,0.6c-0.8,0-1.2-0.6-1.2-1.1c0-0.9,0.8-1.4,2.3-1.4v-0.1
		c0-0.3-0.1-0.9-0.9-0.9c-0.4,0-0.7,0.1-1,0.3l-0.2-0.5c0.3-0.2,0.8-0.3,1.3-0.3c1.2,0,1.5,0.8,1.5,1.6v1.4c0,0.3,0,0.7,0.1,0.9
		H381.7L381.7,136.2z M381.6,134.2c-0.8,0-1.6,0.1-1.6,0.9c0,0.5,0.3,0.7,0.7,0.7c0.5,0,0.8-0.3,0.9-0.6V134.2L381.6,134.2z"/>
	<path class="st2" d="M383.6,132.3l0.5,2l0.3,1.2l0.3-1.2l0.6-2h0.6l0.6,1.9c0.1,0.5,0.3,0.9,0.3,1.3c0.1-0.4,0.2-0.8,0.3-1.3
		l0.6-1.9h0.7l-1.2,3.9h-0.6l-0.6-1.8c-0.1-0.4-0.2-0.8-0.3-1.3c-0.1,0.5-0.2,0.9-0.4,1.3l-0.6,1.8h-0.6l-1.2-3.9H383.6L383.6,132.3
		z"/>
	<path class="st2" d="M391.4,136.2l-0.1-0.5c-0.2,0.3-0.6,0.6-1.2,0.6c-0.8,0-1.2-0.6-1.2-1.1c0-0.9,0.8-1.4,2.3-1.4v-0.1
		c0-0.3-0.1-0.9-0.9-0.9c-0.4,0-0.7,0.1-1,0.3l-0.2-0.5c0.3-0.2,0.8-0.3,1.3-0.3c1.2,0,1.5,0.8,1.5,1.6v1.4c0,0.3,0,0.7,0.1,0.9
		H391.4L391.4,136.2z M391.3,134.2c-0.8,0-1.6,0.1-1.6,0.9c0,0.5,0.3,0.7,0.7,0.7c0.5,0,0.8-0.3,0.9-0.6V134.2L391.3,134.2z"/>
	<path class="st2" d="M393.3,132.3l0.8,2.3c0.1,0.3,0.2,0.6,0.2,0.8c0.1-0.2,0.2-0.5,0.2-0.8l0.8-2.3h0.7l-1.1,2.8
		c-0.5,1.3-0.8,2-1.3,2.4c-0.3,0.3-0.7,0.4-0.9,0.5l-0.2-0.6l0.6-0.3c0.2-0.2,0.4-0.4,0.6-0.8c0-0.1,0.1-0.1,0.1-0.2v-0.2l-1.4-3.6
		L393.3,132.3L393.3,132.3z"/>
	<path class="st2" d="M396.3,135.8c0-0.3,0.2-0.5,0.5-0.5s0.5,0.2,0.5,0.5s-0.2,0.5-0.5,0.5S396.3,136.1,396.3,135.8z"/>
	<path class="st2" d="M399.7,135.3c0.3,0.2,0.8,0.4,1.2,0.4c0.7,0,1.1-0.4,1.1-0.9s-0.3-0.8-1-1.1c-0.9-0.3-1.4-0.8-1.4-1.5
		c0-0.8,0.7-1.5,1.7-1.5c0.6,0,1,0.1,1.2,0.3l-0.2,0.6c-0.2-0.1-0.5-0.3-1-0.3c-0.7,0-1,0.4-1,0.8c0,0.5,0.3,0.8,1.1,1
		c0.9,0.4,1.4,0.8,1.4,1.6s-0.6,1.6-1.9,1.6c-0.5,0-1.1-0.2-1.4-0.3L399.7,135.3L399.7,135.3z"/>
	<path class="st2" d="M404.5,131.2c0,0.2-0.2,0.4-0.4,0.4s-0.4-0.2-0.4-0.4s0.2-0.4,0.4-0.4C404.4,130.8,404.5,131,404.5,131.2z
		 M403.8,136.2v-3.9h0.7v3.9H403.8z"/>
	<path class="st2" d="M405.6,133.4v-1h0.6v0.6c0.2-0.4,0.6-0.7,1.3-0.7c0.5,0,1.4,0.3,1.4,1.6v2.3h-0.7V134c0-0.6-0.2-1.1-0.9-1.1
		c-0.5,0-0.8,0.3-0.9,0.7v2.6h-0.7L405.6,133.4L405.6,133.4z"/>
	<path class="st2" d="M412.8,136.1c-0.2,0.1-0.6,0.2-1.1,0.2c-1.2,0-1.9-0.8-1.9-2s0.8-2.1,2.1-2.1c0.4,0,0.8,0.1,1,0.2l-0.2,0.5
		c-0.2-0.1-0.4-0.2-0.8-0.2c-0.9,0-1.4,0.7-1.4,1.5c0,0.9,0.6,1.4,1.3,1.4c0.4,0,0.7-0.1,0.9-0.2L412.8,136.1L412.8,136.1z"/>
	<path class="st2" d="M414,134.4c0,1,0.6,1.3,1.3,1.3c0.5,0,0.8-0.1,1.1-0.2l0.1,0.5c-0.2,0.1-0.7,0.2-1.3,0.2c-1.2,0-1.9-0.8-1.9-2
		s0.7-2.1,1.8-2.1c1.3,0,1.6,1.1,1.6,1.8v0.3H414V134.4z M416.1,133.9c0-0.4-0.2-1.1-1-1.1c-0.7,0-1,0.7-1.1,1.1H416.1z"/>
	<path class="st2" d="M305.2,140.8v1.1h1v0.5h-1v2.1c0,0.5,0.1,0.8,0.5,0.8h0.4v0.5c-0.1,0.1-0.4,0.1-0.6,0.1
		c-0.3,0-0.6-0.1-0.8-0.3c-0.2-0.2-0.3-0.6-0.3-1v-2.1h-0.6V142h0.6v-1L305.2,140.8L305.2,140.8z"/>
	<path class="st2" d="M307,140.1h0.7v2.4c0.1-0.2,0.3-0.4,0.5-0.5s0.5-0.2,0.7-0.2c0.5,0,1.4,0.3,1.4,1.7v2.3h-0.7v-2.2
		c0-0.6-0.2-1.2-0.9-1.2c-0.5,0-0.8,0.3-0.9,0.7v2.6H307L307,140.1L307,140.1z"/>
	<path class="st2" d="M311.8,144c0,1,0.6,1.3,1.3,1.3c0.5,0,0.8-0.1,1.1-0.2l0.1,0.5c-0.2,0.1-0.7,0.2-1.3,0.2c-1.2,0-1.9-0.8-1.9-2
		s0.7-2.1,1.8-2.1c1.3,0,1.6,1.1,1.6,1.8v0.3h-2.7V144z M313.9,143.5c0-0.4-0.2-1.1-1-1.1c-0.7,0-1,0.7-1.1,1.1H313.9z"/>
	<path class="st2" d="M319.3,145.8l-0.1-0.5c-0.2,0.3-0.6,0.6-1.2,0.6c-0.8,0-1.2-0.6-1.2-1.1c0-0.9,0.8-1.4,2.3-1.4v-0.1
		c0-0.3-0.1-0.9-0.9-0.9c-0.4,0-0.7,0.1-1,0.3l-0.2-0.5c0.3-0.2,0.8-0.3,1.3-0.3c1.2,0,1.5,0.8,1.5,1.6v1.4c0,0.3,0,0.7,0.1,0.9
		H319.3L319.3,145.8z M319.2,143.8c-0.8,0-1.6,0.1-1.6,0.9c0,0.5,0.3,0.7,0.7,0.7c0.5,0,0.8-0.3,0.9-0.6V143.8L319.2,143.8z"/>
	<path class="st2" d="M321,140.1h0.7v5.7H321V140.1z"/>
	<path class="st2" d="M325.6,145.7c-0.2,0.1-0.6,0.2-1.1,0.2c-1.2,0-1.9-0.8-1.9-2s0.8-2.1,2.1-2.1c0.4,0,0.8,0.1,1,0.2l-0.2,0.5
		c-0.2-0.1-0.4-0.2-0.8-0.2c-0.9,0-1.4,0.7-1.4,1.5c0,0.9,0.6,1.4,1.3,1.4c0.4,0,0.7-0.1,0.9-0.2L325.6,145.7L325.6,145.7z"/>
	<path class="st2" d="M329.9,143.8c0,1.4-1,2.1-1.9,2.1c-1,0-1.9-0.8-1.9-2c0-1.3,0.8-2.1,1.9-2.1
		C329.2,141.8,329.9,142.6,329.9,143.8z M326.9,143.9c0,0.8,0.5,1.5,1.2,1.5s1.2-0.6,1.2-1.5c0-0.7-0.3-1.5-1.2-1.5
		C327.2,142.4,326.9,143.1,326.9,143.9z"/>
	<path class="st2" d="M330.8,140.1h0.7v2.4c0.1-0.2,0.3-0.4,0.5-0.5s0.5-0.2,0.7-0.2c0.5,0,1.4,0.3,1.4,1.7v2.3h-0.7v-2.2
		c0-0.6-0.2-1.2-0.9-1.2c-0.5,0-0.8,0.3-0.9,0.7v2.6h-0.7v-5.6H330.8z"/>
	<path class="st2" d="M338.8,143.8c0,1.4-1,2.1-1.9,2.1c-1,0-1.9-0.8-1.9-2c0-1.3,0.8-2.1,1.9-2.1S338.8,142.6,338.8,143.8z
		 M335.7,143.9c0,0.8,0.5,1.5,1.2,1.5s1.2-0.6,1.2-1.5c0-0.7-0.3-1.5-1.2-1.5C336,142.4,335.7,143.1,335.7,143.9z"/>
	<path class="st2" d="M339.7,140.1h0.7v5.7h-0.7V140.1z"/>
	<path class="st2" d="M343.2,145.8v-5.7h0.7v2.4c0.2-0.4,0.7-0.7,1.3-0.7c1,0,1.6,0.8,1.6,2c0,1.4-0.9,2.1-1.7,2.1
		c-0.6,0-1-0.2-1.3-0.7v0.6L343.2,145.8L343.2,145.8z M343.9,144.2v0.3c0.1,0.5,0.5,0.8,1.1,0.8c0.7,0,1.2-0.6,1.2-1.5
		c0-0.8-0.4-1.4-1.2-1.4c-0.5,0-0.9,0.3-1.1,0.9V144.2z"/>
	<path class="st2" d="M348.2,144c0,1,0.6,1.3,1.3,1.3c0.5,0,0.8-0.1,1.1-0.2l0.1,0.5c-0.2,0.1-0.7,0.2-1.3,0.2c-1.2,0-1.9-0.8-1.9-2
		s0.7-2.1,1.8-2.1c1.3,0,1.6,1.1,1.6,1.8v0.3h-2.7V144z M350.2,143.5c0-0.4-0.2-1.1-1-1.1c-0.7,0-1,0.7-1.1,1.1H350.2z"/>
	<path class="st2" d="M354.6,145.7c-0.2,0.1-0.6,0.2-1.1,0.2c-1.2,0-1.9-0.8-1.9-2s0.8-2.1,2.1-2.1c0.4,0,0.8,0.1,1,0.2l-0.2,0.5
		c-0.2-0.1-0.4-0.2-0.8-0.2c-0.9,0-1.4,0.7-1.4,1.5c0,0.9,0.6,1.4,1.3,1.4c0.4,0,0.7-0.1,0.9-0.2L354.6,145.7L354.6,145.7z"/>
	<path class="st2" d="M358.8,143.8c0,1.4-1,2.1-1.9,2.1c-1,0-1.9-0.8-1.9-2c0-1.3,0.8-2.1,1.9-2.1
		C358.1,141.8,358.8,142.6,358.8,143.8z M355.8,143.9c0,0.8,0.5,1.5,1.2,1.5s1.2-0.6,1.2-1.5c0-0.7-0.3-1.5-1.2-1.5
		C356.1,142.4,355.8,143.1,355.8,143.9z"/>
	<path class="st2" d="M359.7,143v-1h0.6v0.6c0.2-0.4,0.6-0.7,1.2-0.7c0.5,0,0.9,0.3,1.1,0.8c0.1-0.2,0.3-0.4,0.4-0.5
		c0.2-0.2,0.5-0.3,0.9-0.3c0.5,0,1.3,0.3,1.3,1.7v2.3h-0.7v-2.2c0-0.7-0.3-1.2-0.8-1.2c-0.4,0-0.7,0.3-0.8,0.6
		c0,0.1-0.1,0.2-0.1,0.4v2.4h-0.7v-2.3c0-0.6-0.3-1.1-0.8-1.1c-0.4,0-0.8,0.4-0.9,0.7c0,0.1-0.1,0.2-0.1,0.3v2.3h-0.7V143H359.7z"/>
	<path class="st2" d="M366.8,144c0,1,0.6,1.3,1.3,1.3c0.5,0,0.8-0.1,1.1-0.2l0.1,0.5c-0.2,0.1-0.7,0.2-1.3,0.2c-1.2,0-1.9-0.8-1.9-2
		s0.7-2.1,1.8-2.1c1.3,0,1.6,1.1,1.6,1.8v0.3h-2.7V144z M368.8,143.5c0-0.4-0.2-1.1-1-1.1c-0.7,0-1,0.7-1.1,1.1H368.8z"/>
	<path class="st2" d="M370.3,145.1c0.2,0.1,0.6,0.3,0.9,0.3c0.5,0,0.8-0.3,0.8-0.6s-0.2-0.5-0.7-0.7c-0.7-0.2-1-0.6-1-1.1
		c0-0.6,0.5-1.1,1.3-1.1c0.4,0,0.7,0.1,1,0.2l-0.2,0.5c-0.2-0.1-0.4-0.2-0.8-0.2s-0.6,0.2-0.6,0.5s0.2,0.5,0.7,0.7
		c0.7,0.3,1,0.6,1,1.2c0,0.7-0.5,1.2-1.4,1.2c-0.4,0-0.8-0.1-1.1-0.3L370.3,145.1L370.3,145.1z"/>
	<path class="st2" d="M375.3,143.2v-1.3h0.6v0.7c0.3-0.5,0.7-0.8,1.4-0.8c0.9,0,1.6,0.8,1.6,2c0,1.4-0.8,2.1-1.8,2.1
		c-0.5,0-1-0.2-1.2-0.6v2.1h-0.7v-4.2H375.3z M376,144.2v0.3c0.1,0.5,0.6,0.8,1.1,0.8c0.7,0,1.2-0.6,1.2-1.5c0-0.8-0.4-1.4-1.2-1.4
		c-0.5,0-0.9,0.3-1.1,0.9V144.2z"/>
	<path class="st2" d="M379.8,143.1v-1.2h0.6v0.8c0.2-0.5,0.6-0.8,1.1-0.8h0.2v0.7h-0.2c-0.5,0-0.8,0.4-0.9,0.9v2.4h-0.7v-2.8
		L379.8,143.1z"/>
	<path class="st2" d="M383.2,140.8c0,0.2-0.2,0.4-0.4,0.4s-0.4-0.2-0.4-0.4s0.2-0.4,0.4-0.4C383.1,140.4,383.2,140.6,383.2,140.8z
		 M382.5,145.8v-3.9h0.7v3.9H382.5z"/>
	<path class="st2" d="M387.8,143.8c0,1.4-1,2.1-1.9,2.1c-1,0-1.9-0.8-1.9-2c0-1.3,0.8-2.1,1.9-2.1
		C387.1,141.8,387.8,142.6,387.8,143.8z M384.8,143.9c0,0.8,0.5,1.5,1.2,1.5s1.2-0.6,1.2-1.5c0-0.7-0.3-1.5-1.2-1.5
		C385.1,142.4,384.8,143.1,384.8,143.9z"/>
	<path class="st2" d="M388.7,143.1v-1.2h0.6v0.8c0.2-0.5,0.6-0.8,1.1-0.8h0.2v0.7h-0.2c-0.5,0-0.8,0.4-0.9,0.9v2.4h-0.7v-2.8
		L388.7,143.1z"/>
	<path class="st2" d="M392.2,140.8c0,0.2-0.2,0.4-0.4,0.4s-0.4-0.2-0.4-0.4s0.2-0.4,0.4-0.4S392.2,140.6,392.2,140.8z M391.4,145.8
		v-3.9h0.7v3.9H391.4z"/>
	<path class="st2" d="M394.1,140.8v1.1h1v0.5h-1v2.1c0,0.5,0.1,0.8,0.5,0.8h0.4v0.5c-0.1,0.1-0.4,0.1-0.6,0.1
		c-0.3,0-0.6-0.1-0.8-0.3c-0.2-0.2-0.3-0.6-0.3-1v-2.1h-0.6V142h0.6v-1L394.1,140.8L394.1,140.8z"/>
	<path class="st2" d="M396.2,141.9l0.8,2.3c0.1,0.3,0.2,0.6,0.2,0.8c0.1-0.2,0.2-0.5,0.2-0.8l0.8-2.3h0.7l-1.1,2.8
		c-0.5,1.3-0.8,2-1.3,2.4c-0.3,0.3-0.7,0.4-0.9,0.5l-0.2-0.6l0.6-0.3c0.2-0.2,0.4-0.4,0.6-0.8c0-0.1,0.1-0.1,0.1-0.2v-0.2l-1.4-3.6
		L396.2,141.9L396.2,141.9z"/>
	<path class="st2" d="M402.2,140.8c0,0.2-0.2,0.4-0.4,0.4s-0.4-0.2-0.4-0.4s0.2-0.4,0.4-0.4S402.2,140.6,402.2,140.8z M401.4,145.8
		v-3.9h0.7v3.9H401.4z"/>
	<path class="st2" d="M403.3,143v-1h0.6v0.6c0.2-0.4,0.6-0.7,1.3-0.7c0.5,0,1.4,0.3,1.4,1.6v2.3h-0.7v-2.2c0-0.6-0.2-1.1-0.9-1.1
		c-0.5,0-0.8,0.3-0.9,0.7v2.6h-0.7L403.3,143L403.3,143z"/>
	<path class="st2" d="M410.3,140.8v1.1h1v0.5h-1v2.1c0,0.5,0.1,0.8,0.5,0.8h0.4v0.5c-0.1,0.1-0.4,0.1-0.6,0.1
		c-0.3,0-0.6-0.1-0.8-0.3c-0.2-0.2-0.3-0.6-0.3-1v-2.1H409V142h0.6v-1L410.3,140.8L410.3,140.8z"/>
	<path class="st2" d="M412.1,140.1h0.7v2.4c0.1-0.2,0.3-0.4,0.5-0.5s0.5-0.2,0.7-0.2c0.5,0,1.4,0.3,1.4,1.7v2.3h-0.7v-2.2
		c0-0.6-0.2-1.2-0.9-1.2c-0.5,0-0.8,0.3-0.9,0.7v2.6h-0.7v-5.6H412.1z"/>
	<path class="st2" d="M416.9,144c0,1,0.6,1.3,1.3,1.3c0.5,0,0.8-0.1,1.1-0.2l0.1,0.5c-0.2,0.1-0.7,0.2-1.3,0.2c-1.2,0-1.9-0.8-1.9-2
		s0.7-2.1,1.8-2.1c1.3,0,1.6,1.1,1.6,1.8v0.3h-2.7V144z M419,143.5c0-0.4-0.2-1.1-1-1.1c-0.7,0-1,0.7-1.1,1.1H419z"/>
	<path class="st2" d="M303.4,152.6v-1h0.6v0.6c0.2-0.4,0.6-0.7,1.2-0.7c0.5,0,0.9,0.3,1.1,0.8c0.1-0.2,0.3-0.4,0.4-0.5
		c0.2-0.2,0.5-0.3,0.9-0.3c0.5,0,1.3,0.3,1.3,1.7v2.3h-0.7v-2.2c0-0.7-0.3-1.2-0.8-1.2c-0.4,0-0.7,0.3-0.8,0.6
		c0,0.1-0.1,0.2-0.1,0.4v2.4h-0.7v-2.3c0-0.6-0.3-1.1-0.8-1.1c-0.4,0-0.8,0.4-0.9,0.7c0,0.1-0.1,0.2-0.1,0.3v2.3h-0.7v-2.8H303.4z"
		/>
	<path class="st2" d="M310.5,153.6c0,1,0.6,1.3,1.3,1.3c0.5,0,0.8-0.1,1.1-0.2l0.1,0.5c-0.2,0.1-0.7,0.2-1.3,0.2
		c-1.2,0-1.9-0.8-1.9-2s0.7-2.1,1.8-2.1c1.3,0,1.6,1.1,1.6,1.8v0.3h-2.7V153.6z M312.5,153.1c0-0.4-0.2-1.1-1-1.1
		c-0.7,0-1,0.7-1.1,1.1H312.5z"/>
	<path class="st2" d="M314.9,150.4v1.1h1v0.5h-1v2.1c0,0.5,0.1,0.8,0.5,0.8h0.4v0.5c-0.1,0.1-0.4,0.1-0.6,0.1
		c-0.3,0-0.6-0.1-0.8-0.3c-0.2-0.2-0.3-0.6-0.3-1v-2.1h-0.6v-0.5h0.6v-0.9L314.9,150.4L314.9,150.4z"/>
	<path class="st2" d="M318.9,155.4l-0.1-0.5c-0.2,0.3-0.6,0.6-1.2,0.6c-0.8,0-1.2-0.6-1.2-1.1c0-0.9,0.8-1.4,2.3-1.4v-0.1
		c0-0.3-0.1-0.9-0.9-0.9c-0.4,0-0.7,0.1-1,0.3l-0.2-0.5c0.3-0.2,0.8-0.3,1.3-0.3c1.2,0,1.5,0.8,1.5,1.6v1.4c0,0.3,0,0.7,0.1,0.9
		H318.9L318.9,155.4z M318.8,153.4c-0.8,0-1.6,0.1-1.6,0.9c0,0.5,0.3,0.7,0.7,0.7c0.5,0,0.8-0.3,0.9-0.6V153.4L318.8,153.4z"/>
	<path class="st2" d="M320.5,155.4v-5.7h0.7v2.4c0.2-0.4,0.7-0.7,1.3-0.7c1,0,1.6,0.8,1.6,2c0,1.4-0.9,2.1-1.7,2.1
		c-0.6,0-1-0.2-1.3-0.7v0.6L320.5,155.4L320.5,155.4z M321.3,153.8v0.3c0.1,0.5,0.5,0.8,1.1,0.8c0.7,0,1.2-0.6,1.2-1.5
		c0-0.8-0.4-1.4-1.2-1.4c-0.5,0-0.9,0.3-1.1,0.9V153.8z"/>
	<path class="st2" d="M328.6,153.4c0,1.4-1,2.1-1.9,2.1c-1,0-1.9-0.8-1.9-2c0-1.3,0.8-2.1,1.9-2.1
		C327.9,151.4,328.6,152.2,328.6,153.4z M325.6,153.5c0,0.8,0.5,1.5,1.2,1.5s1.2-0.6,1.2-1.5c0-0.7-0.3-1.5-1.2-1.5
		C325.9,152,325.6,152.7,325.6,153.5z"/>
	<path class="st2" d="M329.5,149.7h0.7v5.7h-0.7V149.7z"/>
	<path class="st2" d="M332.2,150.4c0,0.2-0.2,0.4-0.4,0.4s-0.4-0.2-0.4-0.4s0.2-0.4,0.4-0.4S332.2,150.2,332.2,150.4z M331.4,155.4
		v-3.9h0.7v3.9H331.4z"/>
	<path class="st2" d="M336,155.3c-0.2,0.1-0.6,0.2-1.1,0.2c-1.2,0-1.9-0.8-1.9-2s0.8-2.1,2.1-2.1c0.4,0,0.8,0.1,1,0.2l-0.2,0.5
		c-0.2-0.1-0.4-0.2-0.8-0.2c-0.9,0-1.4,0.7-1.4,1.5c0,0.9,0.6,1.4,1.3,1.4c0.4,0,0.7-0.1,0.9-0.2L336,155.3L336,155.3z"/>
	<path class="st2" d="M338.6,152.8v-1.3h0.6v0.7c0.3-0.5,0.7-0.8,1.4-0.8c0.9,0,1.6,0.8,1.6,2c0,1.4-0.8,2.1-1.8,2.1
		c-0.5,0-1-0.2-1.2-0.6v2.1h-0.7v-4.2H338.6z M339.3,153.8v0.3c0.1,0.5,0.6,0.8,1.1,0.8c0.7,0,1.2-0.6,1.2-1.5
		c0-0.8-0.4-1.4-1.2-1.4c-0.5,0-0.9,0.3-1.1,0.9V153.8z"/>
	<path class="st2" d="M343.1,152.7v-1.2h0.6v0.8c0.2-0.5,0.6-0.8,1.1-0.8h0.2v0.7h-0.2c-0.5,0-0.8,0.4-0.9,0.9v2.4h-0.7v-2.8
		L343.1,152.7z"/>
	<path class="st2" d="M349.2,153.4c0,1.4-1,2.1-1.9,2.1c-1,0-1.9-0.8-1.9-2c0-1.3,0.8-2.1,1.9-2.1S349.2,152.2,349.2,153.4z
		 M346.1,153.5c0,0.8,0.5,1.5,1.2,1.5s1.2-0.6,1.2-1.5c0-0.7-0.3-1.5-1.2-1.5C346.4,152,346.1,152.7,346.1,153.5z"/>
	<path class="st2" d="M352.8,155.3c-0.2,0.1-0.6,0.2-1.1,0.2c-1.2,0-1.9-0.8-1.9-2s0.8-2.1,2.1-2.1c0.4,0,0.8,0.1,1,0.2l-0.2,0.5
		c-0.2-0.1-0.4-0.2-0.8-0.2c-0.9,0-1.4,0.7-1.4,1.5c0,0.9,0.6,1.4,1.3,1.4c0.4,0,0.7-0.1,0.9-0.2L352.8,155.3L352.8,155.3z"/>
	<path class="st2" d="M354,153.6c0,1,0.6,1.3,1.3,1.3c0.5,0,0.8-0.1,1.1-0.2l0.1,0.5c-0.2,0.1-0.7,0.2-1.3,0.2c-1.2,0-1.9-0.8-1.9-2
		s0.7-2.1,1.8-2.1c1.3,0,1.6,1.1,1.6,1.8v0.3H354V153.6z M356,153.1c0-0.4-0.2-1.1-1-1.1c-0.7,0-1,0.7-1.1,1.1H356z"/>
	<path class="st2" d="M357.5,154.7c0.2,0.1,0.6,0.3,0.9,0.3c0.5,0,0.8-0.3,0.8-0.6s-0.2-0.5-0.7-0.7c-0.7-0.2-1-0.6-1-1.1
		c0-0.6,0.5-1.1,1.3-1.1c0.4,0,0.7,0.1,1,0.2l-0.2,0.5c-0.2-0.1-0.4-0.2-0.8-0.2s-0.6,0.2-0.6,0.5s0.2,0.5,0.7,0.7
		c0.7,0.3,1,0.6,1,1.2c0,0.7-0.5,1.2-1.4,1.2c-0.4,0-0.8-0.1-1.1-0.3L357.5,154.7L357.5,154.7z"/>
	<path class="st2" d="M360.7,154.7c0.2,0.1,0.6,0.3,0.9,0.3c0.5,0,0.8-0.3,0.8-0.6s-0.2-0.5-0.7-0.7c-0.7-0.2-1-0.6-1-1.1
		c0-0.6,0.5-1.1,1.3-1.1c0.4,0,0.7,0.1,1,0.2l-0.2,0.5c-0.2-0.1-0.4-0.2-0.8-0.2s-0.6,0.2-0.6,0.5s0.2,0.5,0.7,0.7
		c0.7,0.3,1,0.6,1,1.2c0,0.7-0.5,1.2-1.4,1.2c-0.4,0-0.8-0.1-1.1-0.3L360.7,154.7L360.7,154.7z"/>
	<path class="st2" d="M363.4,156.4c0.2-0.5,0.4-1.3,0.5-1.9l0.8-0.1c-0.2,0.7-0.5,1.6-0.8,1.9L363.4,156.4z"/>
	<path class="st2" d="M367.4,151.5l0.8,2.3c0.1,0.3,0.2,0.6,0.2,0.8c0.1-0.2,0.2-0.5,0.2-0.8l0.8-2.3h0.7l-1.1,2.8
		c-0.5,1.3-0.8,2-1.3,2.4c-0.3,0.3-0.7,0.4-0.9,0.5l-0.2-0.6l0.6-0.3c0.2-0.2,0.4-0.4,0.6-0.8c0-0.1,0.1-0.1,0.1-0.2v-0.2l-1.4-3.6
		L367.4,151.5L367.4,151.5z"/>
	<path class="st2" d="M374.4,153.4c0,1.4-1,2.1-1.9,2.1c-1,0-1.9-0.8-1.9-2c0-1.3,0.8-2.1,1.9-2.1S374.4,152.2,374.4,153.4z
		 M371.3,153.5c0,0.8,0.5,1.5,1.2,1.5s1.2-0.6,1.2-1.5c0-0.7-0.3-1.5-1.2-1.5C371.7,152,371.3,152.7,371.3,153.5z"/>
	<path class="st2" d="M378.5,154.3v1.1h-0.6v-0.6c-0.2,0.3-0.6,0.7-1.3,0.7c-0.6,0-1.3-0.3-1.3-1.7v-2.3h0.7v2.1
		c0,0.7,0.2,1.2,0.9,1.2c0.5,0,0.8-0.3,0.9-0.6c0-0.1,0.1-0.2,0.1-0.4v-2.4h0.7v2.9H378.5z"/>
	<path class="st2" d="M379.7,152.7v-1.2h0.6v0.8c0.2-0.5,0.6-0.8,1.1-0.8h0.2v0.7h-0.2c-0.5,0-0.8,0.4-0.9,0.9v2.4h-0.7v-2.8
		L379.7,152.7z"/>
	<path class="st2" d="M384,155.4v-5.7h0.7v2.4c0.2-0.4,0.7-0.7,1.3-0.7c1,0,1.6,0.8,1.6,2c0,1.4-0.9,2.1-1.7,2.1
		c-0.6,0-1-0.2-1.3-0.7v0.6L384,155.4L384,155.4z M384.7,153.8v0.3c0.1,0.5,0.5,0.8,1.1,0.8c0.7,0,1.2-0.6,1.2-1.5
		c0-0.8-0.4-1.4-1.2-1.4c-0.5,0-0.9,0.3-1.1,0.9V153.8z"/>
	<path class="st2" d="M392,153.4c0,1.4-1,2.1-1.9,2.1c-1,0-1.9-0.8-1.9-2c0-1.3,0.8-2.1,1.9-2.1C391.3,151.4,392,152.2,392,153.4z
		 M389,153.5c0,0.8,0.5,1.5,1.2,1.5s1.2-0.6,1.2-1.5c0-0.7-0.3-1.5-1.2-1.5C389.3,152,389,152.7,389,153.5z"/>
	<path class="st2" d="M396.3,149.7v5.7h-0.6v-0.7c-0.2,0.4-0.7,0.8-1.3,0.8c-0.9,0-1.7-0.8-1.7-2c0-1.3,0.8-2.1,1.7-2.1
		c0.6,0,1,0.3,1.2,0.6v-2.3H396.3L396.3,149.7z M395.6,153.1v-0.3c-0.1-0.4-0.5-0.8-1-0.8c-0.7,0-1.2,0.6-1.2,1.5
		c0,0.8,0.4,1.4,1.1,1.4c0.5,0,0.9-0.3,1-0.8v-1L395.6,153.1z"/>
	<path class="st2" d="M397.7,151.5l0.8,2.3c0.1,0.3,0.2,0.6,0.2,0.8c0.1-0.2,0.2-0.5,0.2-0.8l0.8-2.3h0.7l-1.1,2.8
		c-0.5,1.3-0.8,2-1.3,2.4c-0.3,0.3-0.7,0.4-0.9,0.5l-0.2-0.6l0.6-0.3c0.2-0.2,0.4-0.4,0.6-0.8c0-0.1,0.1-0.1,0.1-0.2v-0.2l-1.4-3.6
		L397.7,151.5L397.7,151.5z"/>
	<path class="st2" d="M403.2,151.5l0.5,2l0.3,1.2l0.3-1.2l0.6-2h0.6l0.6,1.9c0.1,0.5,0.3,0.9,0.3,1.3c0.1-0.4,0.2-0.8,0.3-1.3
		l0.6-1.9h0.7l-1.2,3.9h-0.6l-0.6-1.8c-0.1-0.4-0.2-0.8-0.3-1.3c-0.1,0.5-0.2,0.9-0.4,1.3l-0.6,1.8h-0.6l-1.2-3.9H403.2L403.2,151.5
		z"/>
	<path class="st2" d="M412.2,153.4c0,1.4-1,2.1-1.9,2.1c-1,0-1.9-0.8-1.9-2c0-1.3,0.8-2.1,1.9-2.1
		C411.5,151.4,412.2,152.2,412.2,153.4z M409.1,153.5c0,0.8,0.5,1.5,1.2,1.5s1.2-0.6,1.2-1.5c0-0.7-0.3-1.5-1.2-1.5
		C409.5,152,409.1,152.7,409.1,153.5z"/>
	<path class="st2" d="M413.1,152.6v-1h0.6v0.6c0.2-0.4,0.6-0.7,1.3-0.7c0.5,0,1.4,0.3,1.4,1.6v2.3h-0.7v-2.2c0-0.6-0.2-1.1-0.9-1.1
		c-0.5,0-0.8,0.3-0.9,0.7v2.6h-0.7L413.1,152.6L413.1,152.6z"/>
	<path class="st2" d="M418.2,149.9c-0.2,0.7-0.5,1.5-0.8,1.9l-0.4,0.1c0.2-0.5,0.4-1.3,0.5-1.9L418.2,149.9L418.2,149.9z"/>
	<path class="st2" d="M419.7,150.4v1.1h1v0.5h-1v2.1c0,0.5,0.1,0.8,0.5,0.8h0.4v0.5c-0.1,0.1-0.4,0.1-0.6,0.1
		c-0.3,0-0.6-0.1-0.8-0.3c-0.2-0.2-0.3-0.6-0.3-1v-2.1h-0.6v-0.5h0.6v-0.9L419.7,150.4L419.7,150.4z"/>
	<path class="st2" d="M303.8,162.2v-1h0.6v0.6c0.2-0.4,0.6-0.7,1.2-0.7c0.5,0,0.9,0.3,1.1,0.8c0.1-0.2,0.3-0.4,0.4-0.5
		c0.2-0.2,0.5-0.3,0.9-0.3c0.5,0,1.3,0.3,1.3,1.7v2.3h-0.7v-2.2c0-0.7-0.3-1.2-0.8-1.2c-0.4,0-0.7,0.3-0.8,0.6
		c0,0.1-0.1,0.2-0.1,0.4v2.4h-0.7v-2.3c0-0.6-0.3-1.1-0.8-1.1c-0.4,0-0.8,0.4-0.9,0.7c0,0.1-0.1,0.2-0.1,0.3v2.3h-0.7v-2.8H303.8z"
		/>
	<path class="st2" d="M310.8,163.2c0,1,0.6,1.3,1.3,1.3c0.5,0,0.8-0.1,1.1-0.2l0.1,0.5c-0.2,0.1-0.7,0.2-1.3,0.2
		c-1.2,0-1.9-0.8-1.9-2s0.7-2.1,1.8-2.1c1.3,0,1.6,1.1,1.6,1.8v0.3h-2.7V163.2z M312.9,162.7c0-0.4-0.2-1.1-1-1.1
		c-0.7,0-1,0.7-1.1,1.1H312.9z"/>
	<path class="st2" d="M315.3,160v1.1h1v0.5h-1v2.1c0,0.5,0.1,0.8,0.5,0.8h0.4v0.5c-0.1,0.1-0.4,0.1-0.6,0.1c-0.3,0-0.6-0.1-0.8-0.3
		c-0.2-0.2-0.3-0.6-0.3-1v-2.1H314v-0.5h0.6v-0.9L315.3,160L315.3,160z"/>
	<path class="st2" d="M319.2,165l-0.1-0.5c-0.2,0.3-0.6,0.6-1.2,0.6c-0.8,0-1.2-0.6-1.2-1.1c0-0.9,0.8-1.4,2.3-1.4v-0.1
		c0-0.3-0.1-0.9-0.9-0.9c-0.4,0-0.7,0.1-1,0.3l-0.2-0.5c0.3-0.2,0.8-0.3,1.3-0.3c1.2,0,1.5,0.8,1.5,1.6v1.4c0,0.3,0,0.7,0.1,0.9
		H319.2L319.2,165z M319.1,163c-0.8,0-1.6,0.1-1.6,0.9c0,0.5,0.3,0.7,0.7,0.7c0.5,0,0.8-0.3,0.9-0.6V163L319.1,163z"/>
	<path class="st2" d="M320.9,165v-5.7h0.7v2.4c0.2-0.4,0.7-0.7,1.3-0.7c1,0,1.6,0.8,1.6,2c0,1.4-0.9,2.1-1.7,2.1
		c-0.6,0-1-0.2-1.3-0.7v0.6L320.9,165L320.9,165z M321.7,163.4v0.3c0.1,0.5,0.5,0.8,1.1,0.8c0.7,0,1.2-0.6,1.2-1.5
		c0-0.8-0.4-1.4-1.2-1.4c-0.5,0-0.9,0.3-1.1,0.9V163.4z"/>
	<path class="st2" d="M329,163c0,1.4-1,2.1-1.9,2.1c-1,0-1.9-0.8-1.9-2c0-1.3,0.8-2.1,1.9-2.1C328.3,161,329,161.8,329,163z
		 M325.9,163.1c0,0.8,0.5,1.5,1.2,1.5s1.2-0.6,1.2-1.5c0-0.7-0.3-1.5-1.2-1.5C326.3,161.6,325.9,162.3,325.9,163.1z"/>
	<path class="st2" d="M329.9,159.3h0.7v5.7h-0.7V159.3z"/>
	<path class="st2" d="M332.6,160c0,0.2-0.2,0.4-0.4,0.4s-0.4-0.2-0.4-0.4s0.2-0.4,0.4-0.4S332.6,159.8,332.6,160z M331.8,165v-3.9
		h0.7v3.9H331.8z"/>
	<path class="st2" d="M333.2,164.6l1.8-2.3c0.2-0.2,0.3-0.4,0.5-0.6h-2.1v-0.6h3v0.4l-1.7,2.2c-0.2,0.2-0.3,0.4-0.5,0.6h2.3v0.6
		h-3.1v-0.3L333.2,164.6z"/>
	<path class="st2" d="M337.4,163.2c0,1,0.6,1.3,1.3,1.3c0.5,0,0.8-0.1,1.1-0.2l0.1,0.5c-0.2,0.1-0.7,0.2-1.3,0.2
		c-1.2,0-1.9-0.8-1.9-2s0.7-2.1,1.8-2.1c1.3,0,1.6,1.1,1.6,1.8v0.3h-2.7V163.2z M339.5,162.7c0-0.4-0.2-1.1-1-1.1
		c-0.7,0-1,0.7-1.1,1.1H339.5z"/>
	<path class="st2" d="M346.2,163c0,1.4-1,2.1-1.9,2.1c-1,0-1.9-0.8-1.9-2c0-1.3,0.8-2.1,1.9-2.1C345.5,161,346.2,161.8,346.2,163z
		 M343.2,163.1c0,0.8,0.5,1.5,1.2,1.5s1.2-0.6,1.2-1.5c0-0.7-0.3-1.5-1.2-1.5C343.5,161.6,343.2,162.3,343.2,163.1z"/>
	<path class="st2" d="M348,160v1.1h1v0.5h-1v2.1c0,0.5,0.1,0.8,0.5,0.8h0.4v0.5c-0.1,0.1-0.4,0.1-0.6,0.1c-0.3,0-0.6-0.1-0.8-0.3
		c-0.2-0.2-0.3-0.6-0.3-1v-2.1h-0.6v-0.5h0.6v-0.9L348,160L348,160z"/>
	<path class="st2" d="M349.8,159.3h0.7v2.4c0.1-0.2,0.3-0.4,0.5-0.5s0.5-0.2,0.7-0.2c0.5,0,1.4,0.3,1.4,1.7v2.3h-0.7v-2.2
		c0-0.6-0.2-1.2-0.9-1.2c-0.5,0-0.8,0.3-0.9,0.7v2.6h-0.7v-5.6H349.8z"/>
	<path class="st2" d="M354.6,163.2c0,1,0.6,1.3,1.3,1.3c0.5,0,0.8-0.1,1.1-0.2l0.1,0.5c-0.2,0.1-0.7,0.2-1.3,0.2
		c-1.2,0-1.9-0.8-1.9-2s0.7-2.1,1.8-2.1c1.3,0,1.6,1.1,1.6,1.8v0.3h-2.7V163.2z M356.7,162.7c0-0.4-0.2-1.1-1-1.1
		c-0.7,0-1,0.7-1.1,1.1H356.7z"/>
	<path class="st2" d="M358.2,162.3v-1.2h0.6v0.8c0.2-0.5,0.6-0.8,1.1-0.8h0.2v0.7h-0.2c-0.5,0-0.8,0.4-0.9,0.9v2.4h-0.7v-2.8
		L358.2,162.3z"/>
	<path class="st2" d="M362.6,165v-3.3h-0.5v-0.5h0.5V161c0-0.5,0.1-1,0.4-1.4c0.3-0.3,0.6-0.4,0.9-0.4c0.2,0,0.5,0.1,0.6,0.1
		l-0.1,0.5c-0.1,0-0.2-0.1-0.4-0.1c-0.6,0-0.8,0.5-0.8,1.1v0.2h0.9v0.5h-0.9v3.3h-0.6V165z"/>
	<path class="st2" d="M367,165l-0.1-0.5c-0.2,0.3-0.6,0.6-1.2,0.6c-0.8,0-1.2-0.6-1.2-1.1c0-0.9,0.8-1.4,2.3-1.4v-0.1
		c0-0.3-0.1-0.9-0.9-0.9c-0.4,0-0.7,0.1-1,0.3l-0.2-0.5c0.3-0.2,0.8-0.3,1.3-0.3c1.2,0,1.5,0.8,1.5,1.6v1.4c0,0.3,0,0.7,0.1,0.9H367
		L367,165z M366.9,163c-0.8,0-1.6,0.1-1.6,0.9c0,0.5,0.3,0.7,0.7,0.7c0.5,0,0.8-0.3,0.9-0.6V163L366.9,163z"/>
	<path class="st2" d="M369.5,160v1.1h1v0.5h-1v2.1c0,0.5,0.1,0.8,0.5,0.8h0.4v0.5c-0.1,0.1-0.4,0.1-0.6,0.1c-0.3,0-0.6-0.1-0.8-0.3
		c-0.2-0.2-0.3-0.6-0.3-1v-2.1h-0.6v-0.5h0.6v-0.9L369.5,160L369.5,160z"/>
	<path class="st2" d="M371.2,164.3c0.2,0.1,0.6,0.3,0.9,0.3c0.5,0,0.8-0.3,0.8-0.6s-0.2-0.5-0.7-0.7c-0.7-0.2-1-0.6-1-1.1
		c0-0.6,0.5-1.1,1.3-1.1c0.4,0,0.7,0.1,1,0.2l-0.2,0.5c-0.2-0.1-0.4-0.2-0.8-0.2s-0.6,0.2-0.6,0.5s0.2,0.5,0.7,0.7
		c0.7,0.3,1,0.6,1,1.2c0,0.7-0.5,1.2-1.4,1.2c-0.4,0-0.8-0.1-1.1-0.3L371.2,164.3L371.2,164.3z"/>
	<path class="st2" d="M378.3,165l-0.1-0.5c-0.2,0.3-0.6,0.6-1.2,0.6c-0.8,0-1.2-0.6-1.2-1.1c0-0.9,0.8-1.4,2.3-1.4v-0.1
		c0-0.3-0.1-0.9-0.9-0.9c-0.4,0-0.7,0.1-1,0.3l-0.2-0.5c0.3-0.2,0.8-0.3,1.3-0.3c1.2,0,1.5,0.8,1.5,1.6v1.4c0,0.3,0,0.7,0.1,0.9
		H378.3L378.3,165z M378.2,163c-0.8,0-1.6,0.1-1.6,0.9c0,0.5,0.3,0.7,0.7,0.7c0.5,0,0.8-0.3,0.9-0.6V163L378.2,163z"/>
	<path class="st2" d="M380.1,162.2v-1h0.6v0.6c0.2-0.4,0.6-0.7,1.3-0.7c0.5,0,1.4,0.3,1.4,1.6v2.3h-0.7v-2.2c0-0.6-0.2-1.1-0.9-1.1
		c-0.5,0-0.8,0.3-0.9,0.7v2.6h-0.7L380.1,162.2L380.1,162.2z"/>
	<path class="st2" d="M387.8,159.3v5.7h-0.6v-0.7c-0.2,0.4-0.7,0.8-1.3,0.8c-0.9,0-1.7-0.8-1.7-2c0-1.3,0.8-2.1,1.7-2.1
		c0.6,0,1,0.3,1.2,0.6v-2.3H387.8L387.8,159.3z M387.1,162.7v-0.3c-0.1-0.4-0.5-0.8-1-0.8c-0.7,0-1.2,0.6-1.2,1.5
		c0,0.8,0.4,1.4,1.1,1.4c0.5,0,0.9-0.3,1-0.8v-1L387.1,162.7z"/>
	<path class="st2" d="M390.6,164.3c0.2,0.1,0.6,0.3,0.9,0.3c0.5,0,0.8-0.3,0.8-0.6s-0.2-0.5-0.7-0.7c-0.7-0.2-1-0.6-1-1.1
		c0-0.6,0.5-1.1,1.3-1.1c0.4,0,0.7,0.1,1,0.2l-0.2,0.5c-0.2-0.1-0.4-0.2-0.8-0.2s-0.6,0.2-0.6,0.5s0.2,0.5,0.7,0.7
		c0.7,0.3,1,0.6,1,1.2c0,0.7-0.5,1.2-1.4,1.2c-0.4,0-0.8-0.1-1.1-0.3L390.6,164.3L390.6,164.3z"/>
	<path class="st2" d="M397.1,163.9v1.1h-0.6v-0.6c-0.2,0.3-0.6,0.7-1.3,0.7c-0.6,0-1.3-0.3-1.3-1.7v-2.3h0.7v2.1
		c0,0.7,0.2,1.2,0.9,1.2c0.5,0,0.8-0.3,0.9-0.6c0-0.1,0.1-0.2,0.1-0.4V161h0.7v2.9H397.1z"/>
	<path class="st2" d="M401.6,161.1v3.3c0,0.9-0.2,1.4-0.6,1.8c-0.4,0.4-0.9,0.5-1.4,0.5s-1-0.1-1.3-0.3l0.2-0.5
		c0.3,0.2,0.7,0.3,1.1,0.3c0.7,0,1.2-0.4,1.2-1.4v-0.4c-0.2,0.4-0.6,0.6-1.2,0.6c-1,0-1.6-0.8-1.6-1.9c0-1.3,0.9-2.1,1.7-2.1
		c0.7,0,1,0.4,1.2,0.7v-0.6L401.6,161.1L401.6,161.1z M400.9,162.7v-0.3c-0.1-0.4-0.5-0.7-1-0.7c-0.7,0-1.2,0.6-1.2,1.5
		c0,0.8,0.4,1.4,1.1,1.4c0.4,0,0.8-0.3,1-0.7c0-0.1,0.1-0.3,0.1-0.4V162.7z"/>
	<path class="st2" d="M404.9,165l-0.1-0.5c-0.2,0.3-0.6,0.6-1.2,0.6c-0.8,0-1.2-0.6-1.2-1.1c0-0.9,0.8-1.4,2.3-1.4v-0.1
		c0-0.3-0.1-0.9-0.9-0.9c-0.4,0-0.7,0.1-1,0.3l-0.2-0.5c0.3-0.2,0.8-0.3,1.3-0.3c1.2,0,1.5,0.8,1.5,1.6v1.4c0,0.3,0,0.7,0.1,0.9
		H404.9L404.9,165z M404.8,163c-0.8,0-1.6,0.1-1.6,0.9c0,0.5,0.3,0.7,0.7,0.7c0.5,0,0.8-0.3,0.9-0.6V163L404.8,163z"/>
	<path class="st2" d="M406.6,162.3v-1.2h0.6v0.8c0.2-0.5,0.6-0.8,1.1-0.8h0.2v0.7h-0.2c-0.5,0-0.8,0.4-0.9,0.9v2.4h-0.7v-2.8
		L406.6,162.3z"/>
	<path class="st2" d="M409.1,164.3c0.2,0.1,0.6,0.3,0.9,0.3c0.5,0,0.8-0.3,0.8-0.6s-0.2-0.5-0.7-0.7c-0.7-0.2-1-0.6-1-1.1
		c0-0.6,0.5-1.1,1.3-1.1c0.4,0,0.7,0.1,1,0.2l-0.2,0.5c-0.2-0.1-0.4-0.2-0.8-0.2s-0.6,0.2-0.6,0.5s0.2,0.5,0.7,0.7
		c0.7,0.3,1,0.6,1,1.2c0,0.7-0.5,1.2-1.4,1.2c-0.4,0-0.8-0.1-1.1-0.3L409.1,164.3L409.1,164.3z"/>
	<path class="st2" d="M416.2,165l-0.1-0.5c-0.2,0.3-0.6,0.6-1.2,0.6c-0.8,0-1.2-0.6-1.2-1.1c0-0.9,0.8-1.4,2.3-1.4v-0.1
		c0-0.3-0.1-0.9-0.9-0.9c-0.4,0-0.7,0.1-1,0.3l-0.2-0.5c0.3-0.2,0.8-0.3,1.3-0.3c1.2,0,1.5,0.8,1.5,1.6v1.4c0,0.3,0,0.7,0.1,0.9
		H416.2L416.2,165z M416.1,163c-0.8,0-1.6,0.1-1.6,0.9c0,0.5,0.3,0.7,0.7,0.7c0.5,0,0.8-0.3,0.9-0.6V163L416.1,163z"/>
	<path class="st2" d="M417.9,164.3c0.2,0.1,0.6,0.3,0.9,0.3c0.5,0,0.8-0.3,0.8-0.6s-0.2-0.5-0.7-0.7c-0.7-0.2-1-0.6-1-1.1
		c0-0.6,0.5-1.1,1.3-1.1c0.4,0,0.7,0.1,1,0.2l-0.2,0.5c-0.2-0.1-0.4-0.2-0.8-0.2s-0.6,0.2-0.6,0.5s0.2,0.5,0.7,0.7
		c0.7,0.3,1,0.6,1,1.2c0,0.7-0.5,1.2-1.4,1.2c-0.4,0-0.8-0.1-1.1-0.3L417.9,164.3L417.9,164.3z"/>
	<path class="st2" d="M305.9,172.8c0,1,0.6,1.3,1.3,1.3c0.5,0,0.8-0.1,1.1-0.2l0.1,0.5c-0.2,0.1-0.7,0.2-1.3,0.2
		c-1.2,0-1.9-0.8-1.9-2s0.7-2.1,1.8-2.1c1.3,0,1.6,1.1,1.6,1.8v0.3h-2.7V172.8z M308,172.3c0-0.4-0.2-1.1-1-1.1
		c-0.7,0-1,0.7-1.1,1.1H308z"/>
	<path class="st2" d="M314.4,169.6c-0.2-0.1-0.5-0.2-0.8-0.2c-0.7,0-1,0.5-1,1.1v0.2h2.3v3.9h-0.7v-3.3h-1.5v3.3H312v-3.3h-1.6v3.3
		h-0.7v-3.3H309v-0.5h0.5v-0.1c0-0.5,0.1-1,0.5-1.3c0.2-0.2,0.6-0.4,1-0.4c0.3,0,0.5,0.1,0.7,0.2l-0.2,0.5c-0.1-0.1-0.3-0.1-0.5-0.1
		s-0.4,0.1-0.5,0.2c-0.2,0.2-0.3,0.6-0.3,0.9v0.2h1.6v-0.2c0-1,0.6-1.7,1.7-1.7c0.4,0,0.8,0.1,1,0.2L314.4,169.6L314.4,169.6z"/>
	<path class="st2" d="M318.8,174.5c-0.2,0.1-0.6,0.2-1.1,0.2c-1.2,0-1.9-0.8-1.9-2s0.8-2.1,2.1-2.1c0.4,0,0.8,0.1,1,0.2l-0.2,0.5
		c-0.2-0.1-0.4-0.2-0.8-0.2c-0.9,0-1.4,0.7-1.4,1.5c0,0.9,0.6,1.4,1.3,1.4c0.4,0,0.7-0.1,0.9-0.2L318.8,174.5L318.8,174.5z"/>
	<path class="st2" d="M320.4,169.6c0,0.2-0.2,0.4-0.4,0.4s-0.4-0.2-0.4-0.4s0.2-0.4,0.4-0.4S320.4,169.4,320.4,169.6z M319.6,174.6
		v-3.9h0.7v3.9H319.6z"/>
	<path class="st2" d="M321.9,172.8c0,1,0.6,1.3,1.3,1.3c0.5,0,0.8-0.1,1.1-0.2l0.1,0.5c-0.2,0.1-0.7,0.2-1.3,0.2
		c-1.2,0-1.9-0.8-1.9-2s0.7-2.1,1.8-2.1c1.3,0,1.6,1.1,1.6,1.8v0.3h-2.7V172.8z M323.9,172.3c0-0.4-0.2-1.1-1-1.1
		c-0.7,0-1,0.7-1.1,1.1H323.9z"/>
	<path class="st2" d="M325.5,171.8v-1h0.6v0.6c0.2-0.4,0.6-0.7,1.3-0.7c0.5,0,1.4,0.3,1.4,1.6v2.3h-0.7v-2.2c0-0.6-0.2-1.1-0.9-1.1
		c-0.5,0-0.8,0.3-0.9,0.7v2.6h-0.7L325.5,171.8L325.5,171.8z"/>
	<path class="st2" d="M330.8,169.6v1.1h1v0.5h-1v2.1c0,0.5,0.1,0.8,0.5,0.8h0.4v0.5c-0.1,0.1-0.4,0.1-0.6,0.1
		c-0.3,0-0.6-0.1-0.8-0.3c-0.2-0.2-0.3-0.6-0.3-1v-2.1h-0.6v-0.5h0.6v-0.9L330.8,169.6L330.8,169.6z"/>
	<path class="st2" d="M332.6,168.9h0.7v5.7h-0.7V168.9z"/>
	<path class="st2" d="M334.7,170.7l0.8,2.3c0.1,0.3,0.2,0.6,0.2,0.8c0.1-0.2,0.2-0.5,0.2-0.8l0.8-2.3h0.7l-1.1,2.8
		c-0.5,1.3-0.8,2-1.3,2.4c-0.3,0.3-0.7,0.4-0.9,0.5l-0.2-0.6l0.6-0.3c0.2-0.2,0.4-0.4,0.6-0.8c0-0.1,0.1-0.1,0.1-0.2v-0.2l-1.4-3.6
		L334.7,170.7L334.7,170.7z"/>
	<path class="st2" d="M337.4,175.6c0.2-0.5,0.4-1.3,0.5-1.9l0.8-0.1c-0.2,0.7-0.5,1.6-0.8,1.9L337.4,175.6z"/>
	<path class="st2" d="M344.5,173.5v1.1h-0.6V174c-0.2,0.3-0.6,0.7-1.3,0.7c-0.6,0-1.3-0.3-1.3-1.7v-2.3h0.7v2.1
		c0,0.7,0.2,1.2,0.9,1.2c0.5,0,0.8-0.3,0.9-0.6c0-0.1,0.1-0.2,0.1-0.4v-2.4h0.7v2.9H344.5z"/>
	<path class="st2" d="M345.7,168.9h0.7v5.7h-0.7V168.9z"/>
	<path class="st2" d="M348.4,169.6v1.1h1v0.5h-1v2.1c0,0.5,0.1,0.8,0.5,0.8h0.4v0.5c-0.1,0.1-0.4,0.1-0.6,0.1
		c-0.3,0-0.6-0.1-0.8-0.3c-0.2-0.2-0.3-0.6-0.3-1v-2.1H347v-0.5h0.6v-0.9L348.4,169.6L348.4,169.6z"/>
	<path class="st2" d="M351,169.6c0,0.2-0.2,0.4-0.4,0.4s-0.4-0.2-0.4-0.4s0.2-0.4,0.4-0.4S351,169.4,351,169.6z M350.2,174.6v-3.9
		h0.7v3.9H350.2z"/>
	<path class="st2" d="M352.1,171.8v-1h0.6v0.6c0.2-0.4,0.6-0.7,1.2-0.7c0.5,0,0.9,0.3,1.1,0.8c0.1-0.2,0.3-0.4,0.4-0.5
		c0.2-0.2,0.5-0.3,0.9-0.3c0.5,0,1.3,0.3,1.3,1.7v2.3h-0.7v-2.2c0-0.7-0.3-1.2-0.8-1.2c-0.4,0-0.7,0.3-0.8,0.6
		c0,0.1-0.1,0.2-0.1,0.4v2.4h-0.7v-2.3c0-0.6-0.3-1.1-0.8-1.1c-0.4,0-0.8,0.4-0.9,0.7c0,0.1-0.1,0.2-0.1,0.3v2.3H352v-2.8H352.1z"/>
	<path class="st2" d="M360.9,174.6l-0.1-0.5c-0.2,0.3-0.6,0.6-1.2,0.6c-0.8,0-1.2-0.6-1.2-1.1c0-0.9,0.8-1.4,2.3-1.4v-0.1
		c0-0.3-0.1-0.9-0.9-0.9c-0.4,0-0.7,0.1-1,0.3l-0.2-0.5c0.3-0.2,0.8-0.3,1.3-0.3c1.2,0,1.5,0.8,1.5,1.6v1.4c0,0.3,0,0.7,0.1,0.9
		H360.9L360.9,174.6z M360.8,172.6c-0.8,0-1.6,0.1-1.6,0.9c0,0.5,0.3,0.7,0.7,0.7c0.5,0,0.8-0.3,0.9-0.6V172.6L360.8,172.6z"/>
	<path class="st2" d="M363.4,169.6v1.1h1v0.5h-1v2.1c0,0.5,0.1,0.8,0.5,0.8h0.4v0.5c-0.1,0.1-0.4,0.1-0.6,0.1
		c-0.3,0-0.6-0.1-0.8-0.3c-0.2-0.2-0.3-0.6-0.3-1v-2.1H362v-0.5h0.6v-0.9L363.4,169.6L363.4,169.6z"/>
	<path class="st2" d="M365.6,172.8c0,1,0.6,1.3,1.3,1.3c0.5,0,0.8-0.1,1.1-0.2l0.1,0.5c-0.2,0.1-0.7,0.2-1.3,0.2
		c-1.2,0-1.9-0.8-1.9-2s0.7-2.1,1.8-2.1c1.3,0,1.6,1.1,1.6,1.8v0.3h-2.7V172.8z M367.6,172.3c0-0.4-0.2-1.1-1-1.1
		c-0.7,0-1,0.7-1.1,1.1H367.6z"/>
	<path class="st2" d="M369.2,168.9h0.7v5.7h-0.7V168.9z"/>
	<path class="st2" d="M371.3,170.7l0.8,2.3c0.1,0.3,0.2,0.6,0.2,0.8c0.1-0.2,0.2-0.5,0.2-0.8l0.8-2.3h0.7l-1.1,2.8
		c-0.5,1.3-0.8,2-1.3,2.4c-0.3,0.3-0.7,0.4-0.9,0.5l-0.2-0.6l0.6-0.3c0.2-0.2,0.4-0.4,0.6-0.8c0-0.1,0.1-0.1,0.1-0.2v-0.2l-1.4-3.6
		L371.3,170.7L371.3,170.7z"/>
	<path class="st2" d="M376.4,173.9c0.2,0.1,0.6,0.3,0.9,0.3c0.5,0,0.8-0.3,0.8-0.6s-0.2-0.5-0.7-0.7c-0.7-0.2-1-0.6-1-1.1
		c0-0.6,0.5-1.1,1.3-1.1c0.4,0,0.7,0.1,1,0.2l-0.2,0.5c-0.2-0.1-0.4-0.2-0.8-0.2s-0.6,0.2-0.6,0.5s0.2,0.5,0.7,0.7
		c0.7,0.3,1,0.6,1,1.2c0,0.7-0.5,1.2-1.4,1.2c-0.4,0-0.8-0.1-1.1-0.3L376.4,173.9L376.4,173.9z"/>
	<path class="st2" d="M379.7,168.9h0.7v5.7h-0.7V168.9z"/>
	<path class="st2" d="M385.1,172.6c0,1.4-1,2.1-1.9,2.1c-1,0-1.9-0.8-1.9-2c0-1.3,0.8-2.1,1.9-2.1S385.1,171.4,385.1,172.6z
		 M382,172.7c0,0.8,0.5,1.5,1.2,1.5s1.2-0.6,1.2-1.5c0-0.7-0.3-1.5-1.2-1.5C382.4,171.2,382,171.9,382,172.7z"/>
	<path class="st2" d="M386.2,170.7l0.5,2l0.3,1.2l0.3-1.2l0.6-2h0.6l0.6,1.9c0.1,0.5,0.3,0.9,0.3,1.3c0.1-0.4,0.2-0.8,0.3-1.3
		l0.6-1.9h0.7l-1.2,3.9h-0.6l-0.6-1.8c-0.1-0.4-0.2-0.8-0.3-1.3c-0.1,0.5-0.2,0.9-0.4,1.3l-0.6,1.8h-0.6l-1.2-3.9H386.2L386.2,170.7
		z"/>
	<path class="st2" d="M392.6,169.6c0,0.2-0.2,0.4-0.4,0.4s-0.4-0.2-0.4-0.4s0.2-0.4,0.4-0.4S392.6,169.4,392.6,169.6z M391.8,174.6
		v-3.9h0.7v3.9H391.8z"/>
	<path class="st2" d="M393.7,171.8v-1h0.6v0.6c0.2-0.4,0.6-0.7,1.3-0.7c0.5,0,1.4,0.3,1.4,1.6v2.3h-0.7v-2.2c0-0.6-0.2-1.1-0.9-1.1
		c-0.5,0-0.8,0.3-0.9,0.7v2.6h-0.7L393.7,171.8L393.7,171.8z"/>
	<path class="st2" d="M401.4,170.7v3.3c0,0.9-0.2,1.4-0.6,1.8c-0.4,0.4-0.9,0.5-1.4,0.5s-1-0.1-1.3-0.3l0.2-0.5
		c0.3,0.2,0.7,0.3,1.1,0.3c0.7,0,1.2-0.4,1.2-1.4V174c-0.2,0.4-0.6,0.6-1.2,0.6c-1,0-1.6-0.8-1.6-1.9c0-1.3,0.9-2.1,1.7-2.1
		c0.7,0,1,0.4,1.2,0.7v-0.6L401.4,170.7L401.4,170.7z M400.7,172.3V172c-0.1-0.4-0.5-0.7-1-0.7c-0.7,0-1.2,0.6-1.2,1.5
		c0,0.8,0.4,1.4,1.1,1.4c0.4,0,0.8-0.3,1-0.7c0-0.1,0.1-0.3,0.1-0.4V172.3z"/>
	<path class="st2" d="M404.5,170.7l0.8,2.3c0.1,0.3,0.2,0.6,0.2,0.8c0.1-0.2,0.2-0.5,0.2-0.8l0.8-2.3h0.7l-1.1,2.8
		c-0.5,1.3-0.8,2-1.3,2.4c-0.3,0.3-0.7,0.4-0.9,0.5l-0.2-0.6l0.6-0.3c0.2-0.2,0.4-0.4,0.6-0.8c0-0.1,0.1-0.1,0.1-0.2v-0.2l-1.4-3.6
		L404.5,170.7L404.5,170.7z"/>
	<path class="st2" d="M411.5,172.6c0,1.4-1,2.1-1.9,2.1c-1,0-1.9-0.8-1.9-2c0-1.3,0.8-2.1,1.9-2.1S411.5,171.4,411.5,172.6z
		 M408.4,172.7c0,0.8,0.5,1.5,1.2,1.5s1.2-0.6,1.2-1.5c0-0.7-0.3-1.5-1.2-1.5C408.8,171.2,408.4,171.9,408.4,172.7z"/>
	<path class="st2" d="M415.6,173.5v1.1H415V174c-0.2,0.3-0.6,0.7-1.3,0.7c-0.6,0-1.3-0.3-1.3-1.7v-2.3h0.7v2.1
		c0,0.7,0.2,1.2,0.9,1.2c0.5,0,0.8-0.3,0.9-0.6c0-0.1,0.1-0.2,0.1-0.4v-2.4h0.7v2.9H415.6z"/>
	<path class="st2" d="M416.8,171.9v-1.2h0.6v0.8c0.2-0.5,0.6-0.8,1.1-0.8h0.2v0.7h-0.2c-0.5,0-0.8,0.4-0.9,0.9v2.4h-0.7v-2.8
		L416.8,171.9z"/>
	<path class="st2" d="M315.6,181.4v-1h0.6v0.6c0.2-0.4,0.6-0.7,1.2-0.7c0.5,0,0.9,0.3,1.1,0.8c0.1-0.2,0.3-0.4,0.4-0.5
		c0.2-0.2,0.5-0.3,0.9-0.3c0.5,0,1.3,0.3,1.3,1.7v2.3h-0.7V182c0-0.7-0.3-1.2-0.8-1.2c-0.4,0-0.7,0.3-0.8,0.6c0,0.1-0.1,0.2-0.1,0.4
		v2.4H318v-2.3c0-0.6-0.3-1.1-0.8-1.1c-0.4,0-0.8,0.4-0.9,0.7c0,0.1-0.1,0.2-0.1,0.3v2.3h-0.7v-2.7H315.6z"/>
	<path class="st2" d="M322.6,182.4c0,1,0.6,1.3,1.3,1.3c0.5,0,0.8-0.1,1.1-0.2l0.1,0.5c-0.2,0.1-0.7,0.2-1.3,0.2
		c-1.2,0-1.9-0.8-1.9-2s0.7-2.1,1.8-2.1c1.3,0,1.6,1.1,1.6,1.8v0.3h-2.7V182.4z M324.7,181.9c0-0.4-0.2-1.1-1-1.1
		c-0.7,0-1,0.7-1.1,1.1H324.7z"/>
	<path class="st2" d="M327.1,179.2v1.1h1v0.5h-1v2.1c0,0.5,0.1,0.8,0.5,0.8h0.4v0.5c-0.1,0.1-0.4,0.1-0.6,0.1
		c-0.3,0-0.6-0.1-0.8-0.3c-0.2-0.2-0.3-0.6-0.3-1v-2.1h-0.6v-0.5h0.6v-0.9L327.1,179.2L327.1,179.2z"/>
	<path class="st2" d="M331,184.2l-0.1-0.5c-0.2,0.3-0.6,0.6-1.2,0.6c-0.8,0-1.2-0.6-1.2-1.1c0-0.9,0.8-1.4,2.3-1.4v-0.1
		c0-0.3-0.1-0.9-0.9-0.9c-0.4,0-0.7,0.1-1,0.3l-0.2-0.5c0.3-0.2,0.8-0.3,1.3-0.3c1.2,0,1.5,0.8,1.5,1.6v1.4c0,0.3,0,0.7,0.1,0.9H331
		L331,184.2z M330.9,182.2c-0.8,0-1.6,0.1-1.6,0.9c0,0.5,0.3,0.7,0.7,0.7c0.5,0,0.8-0.3,0.9-0.6V182.2L330.9,182.2z"/>
	<path class="st2" d="M332.7,184.2v-5.7h0.7v2.4c0.2-0.4,0.7-0.7,1.3-0.7c1,0,1.6,0.8,1.6,2c0,1.4-0.9,2.1-1.7,2.1
		c-0.6,0-1-0.2-1.3-0.7v0.6L332.7,184.2L332.7,184.2z M333.4,182.6v0.3c0.1,0.5,0.5,0.8,1.1,0.8c0.7,0,1.2-0.6,1.2-1.5
		c0-0.8-0.4-1.4-1.2-1.4c-0.5,0-0.9,0.3-1.1,0.9V182.6z"/>
	<path class="st2" d="M340.8,182.2c0,1.4-1,2.1-1.9,2.1c-1,0-1.9-0.8-1.9-2c0-1.3,0.8-2.1,1.9-2.1S340.8,181,340.8,182.2z
		 M337.7,182.3c0,0.8,0.5,1.5,1.2,1.5s1.2-0.6,1.2-1.5c0-0.7-0.3-1.5-1.2-1.5C338.1,180.8,337.7,181.5,337.7,182.3z"/>
	<path class="st2" d="M341.7,178.5h0.7v5.7h-0.7V178.5z"/>
	<path class="st2" d="M344.4,179.2c0,0.2-0.2,0.4-0.4,0.4s-0.4-0.2-0.4-0.4s0.2-0.4,0.4-0.4S344.4,179,344.4,179.2z M343.6,184.2
		v-3.9h0.7v3.9H343.6z"/>
	<path class="st2" d="M345.3,183.5c0.2,0.1,0.6,0.3,0.9,0.3c0.5,0,0.8-0.3,0.8-0.6s-0.2-0.5-0.7-0.7c-0.7-0.2-1-0.6-1-1.1
		c0-0.6,0.5-1.1,1.3-1.1c0.4,0,0.7,0.1,1,0.2l-0.2,0.5c-0.2-0.1-0.4-0.2-0.8-0.2s-0.6,0.2-0.6,0.5s0.2,0.5,0.7,0.7
		c0.7,0.3,1,0.6,1,1.2c0,0.7-0.5,1.2-1.4,1.2c-0.4,0-0.8-0.1-1.1-0.3L345.3,183.5L345.3,183.5z"/>
	<path class="st2" d="M348.6,181.4v-1h0.6v0.6c0.2-0.4,0.6-0.7,1.2-0.7c0.5,0,0.9,0.3,1.1,0.8c0.1-0.2,0.3-0.4,0.4-0.5
		c0.2-0.2,0.5-0.3,0.9-0.3c0.5,0,1.3,0.3,1.3,1.7v2.3h-0.7V182c0-0.7-0.3-1.2-0.8-1.2c-0.4,0-0.7,0.3-0.8,0.6c0,0.1-0.1,0.2-0.1,0.4
		v2.4H351v-2.3c0-0.6-0.3-1.1-0.8-1.1c-0.4,0-0.8,0.4-0.9,0.7c0,0.1-0.1,0.2-0.1,0.3v2.3h-0.7v-2.7H348.6z"/>
	<path class="st2" d="M360.3,178.5v5.7h-0.6v-0.7c-0.2,0.4-0.7,0.8-1.3,0.8c-0.9,0-1.7-0.8-1.7-2c0-1.3,0.8-2.1,1.7-2.1
		c0.6,0,1,0.3,1.2,0.6v-2.3H360.3L360.3,178.5z M359.6,181.9v-0.3c-0.1-0.4-0.5-0.8-1-0.8c-0.7,0-1.2,0.6-1.2,1.5
		c0,0.8,0.4,1.4,1.1,1.4c0.5,0,0.9-0.3,1-0.8v-1L359.6,181.9z"/>
	<path class="st2" d="M365,182.2c0,1.4-1,2.1-1.9,2.1c-1,0-1.9-0.8-1.9-2c0-1.3,0.8-2.1,1.9-2.1S365,181,365,182.2z M361.9,182.3
		c0,0.8,0.5,1.5,1.2,1.5s1.2-0.6,1.2-1.5c0-0.7-0.3-1.5-1.2-1.5C362.3,180.8,361.9,181.5,361.9,182.3z"/>
	<path class="st2" d="M366.1,180.3l0.5,2l0.3,1.2l0.3-1.2l0.6-2h0.6l0.6,1.9c0.1,0.5,0.3,0.9,0.3,1.3c0.1-0.4,0.2-0.8,0.3-1.3
		l0.6-1.9h0.7l-1.2,3.9h-0.6l-0.6-1.8c-0.1-0.4-0.2-0.8-0.3-1.3c-0.1,0.5-0.2,0.9-0.4,1.3l-0.6,1.8h-0.6l-1.2-3.9H366.1L366.1,180.3
		z"/>
	<path class="st2" d="M371.7,181.4v-1h0.6v0.6c0.2-0.4,0.6-0.7,1.3-0.7c0.5,0,1.4,0.3,1.4,1.6v2.3h-0.7V182c0-0.6-0.2-1.1-0.9-1.1
		c-0.5,0-0.8,0.3-0.9,0.7v2.6h-0.7L371.7,181.4L371.7,181.4z"/>
	<path class="st2" d="M381.4,182.2c0,1.4-1,2.1-1.9,2.1c-1,0-1.9-0.8-1.9-2c0-1.3,0.8-2.1,1.9-2.1S381.4,181,381.4,182.2z
		 M378.3,182.3c0,0.8,0.5,1.5,1.2,1.5s1.2-0.6,1.2-1.5c0-0.7-0.3-1.5-1.2-1.5C378.6,180.8,378.3,181.5,378.3,182.3z"/>
	<path class="st2" d="M382.5,180.3l0.8,2.2c0.1,0.4,0.2,0.7,0.3,1c0.1-0.3,0.2-0.6,0.3-1l0.8-2.2h0.7l-1.5,3.9h-0.7l-1.5-3.9H382.5
		L382.5,180.3z"/>
	<path class="st2" d="M386.3,182.4c0,1,0.6,1.3,1.3,1.3c0.5,0,0.8-0.1,1.1-0.2l0.1,0.5c-0.2,0.1-0.7,0.2-1.3,0.2
		c-1.2,0-1.9-0.8-1.9-2s0.7-2.1,1.8-2.1c1.3,0,1.6,1.1,1.6,1.8v0.3h-2.7V182.4z M388.4,181.9c0-0.4-0.2-1.1-1-1.1
		c-0.7,0-1,0.7-1.1,1.1H388.4z"/>
	<path class="st2" d="M390,181.5v-1.2h0.6v0.8c0.2-0.5,0.6-0.8,1.1-0.8h0.2v0.7h-0.2c-0.5,0-0.8,0.4-0.9,0.9v2.4H390L390,181.5
		L390,181.5z"/>
	<path class="st2" d="M395.1,179.2v1.1h1v0.5h-1v2.1c0,0.5,0.1,0.8,0.5,0.8h0.4v0.5c-0.1,0.1-0.4,0.1-0.6,0.1
		c-0.3,0-0.6-0.1-0.8-0.3c-0.2-0.2-0.3-0.6-0.3-1v-2.1h-0.6v-0.5h0.6v-0.9L395.1,179.2L395.1,179.2z"/>
	<path class="st2" d="M397.7,179.2c0,0.2-0.2,0.4-0.4,0.4s-0.4-0.2-0.4-0.4s0.2-0.4,0.4-0.4S397.7,179,397.7,179.2z M396.9,184.2
		v-3.9h0.7v3.9H396.9z"/>
	<path class="st2" d="M398.8,181.4v-1h0.6v0.6c0.2-0.4,0.6-0.7,1.2-0.7c0.5,0,0.9,0.3,1.1,0.8c0.1-0.2,0.3-0.4,0.4-0.5
		c0.2-0.2,0.5-0.3,0.9-0.3c0.5,0,1.3,0.3,1.3,1.7v2.3h-0.7V182c0-0.7-0.3-1.2-0.8-1.2c-0.4,0-0.7,0.3-0.8,0.6c0,0.1-0.1,0.2-0.1,0.4
		v2.4h-0.7v-2.3c0-0.6-0.3-1.1-0.8-1.1c-0.4,0-0.8,0.4-0.9,0.7c0,0.1-0.1,0.2-0.1,0.3v2.3h-0.7v-2.7H398.8z"/>
	<path class="st2" d="M405.9,182.4c0,1,0.6,1.3,1.3,1.3c0.5,0,0.8-0.1,1.1-0.2l0.1,0.5c-0.2,0.1-0.7,0.2-1.3,0.2
		c-1.2,0-1.9-0.8-1.9-2s0.7-2.1,1.8-2.1c1.3,0,1.6,1.1,1.6,1.8v0.3h-2.7V182.4z M407.9,181.9c0-0.4-0.2-1.1-1-1.1
		c-0.7,0-1,0.7-1.1,1.1H407.9z"/>
	<path class="st2" d="M409.2,183.8c0-0.3,0.2-0.5,0.5-0.5s0.5,0.2,0.5,0.5s-0.2,0.5-0.5,0.5S409.2,184.1,409.2,183.8z"/>
</g>
<path class="st4" d="M235.1,455.4l42.3-12.5c0,0-3.1-67.1,9.2-83.6c0,0,23-42.9,83.8-38.7c0,0,68.5,3.7,92.6,38.2
	c1.7,2.5,2.6,5.5,2.6,8.5c0,28.6-0.3,190.7-5.8,204.1c0,0-1.6,7.9-19.8,27c0,0-2,3.5-9.3,1.7c0,0-169.2-20.4-199.3-26.6
	c-2.6-0.5-4.5-2.9-4.4-5.6l4-105.8C231,462.2,230.6,456.7,235.1,455.4L235.1,455.4z"/>
<path class="st5" d="M265.5,445.4c0,0,3.3-26.8,39.2-30.1c0,0,18.3-1.3,38.6,5.1c0,0,47.8,3,49.7,5.5c0,0,39.8-13.5,72.3,2.9
	c0,0,18,5.4,19.3,15.1c0,0,1.1,3.4,8.4,1.8c0,0,5.7,1.3,1.1,8.1c0,0,5.5,0.4,1.8,9.3c0,0-5.7,5.4-17.8,2.4c0,0-0.1,3.3,5.8,7.7
	c0,0,4,2.8,0.7,7.4c0,0-2.4,2.9-8.8-2.8c0,0-30-23.4-39.2-21.9c0,0-25.5,3.4-27.4,5.4l-13.4,60.5c0,0,14.5,25.8,5.3,80
	c0,0,11.1,10,15.7,20.9c0,0,4.6,2.7,4,5.4c0,0-2,5.1-6.9,1.6c0,0-2.8,1.8-4.1,0.7c0,0-7.6,6-15.1,5c0,0-9.3,0.1-14.5-4.3
	c0,0-10.4,3.5-17-1.6c0,0-6.8-3.9-5.8-14.8c0,0,17.8-65.9,1.5-73.9c0,0-27.5,9.5-47.8-3.6c0,0-28.5,26.8-35.8,68.8
	c0,0-1.3,10-9.1,13.8c0,0-9.4,4.3-19.6-0.9l-10-6.1c0,0-19.8-4.6-21.7-12c0,0-8.2-2.1-7-5.4c0,0-0.2-1.4,2.2-1.9
	c0,0-0.4-4.8,2.5-4.3c0,0,3.1-5.9,6.3-3.9c0,0,13.8-3.4,21.6-7.5c0,0,15.9-58.9,45.3-76.4c0,0-1.8-40.7,36.1-43.1l2.6-6.2
	c0,0-23.8-12.7-41.5-11.5L265.5,445.4L265.5,445.4z"/>
<path class="st5" d="M329.5,399.6c0,0-2-2.7-0.2-6.6c0,0-0.2-2.5-3.1-4.8c0,0-2-2.6-0.9-5c0,0,1.3-2.4,0.9-3.2c0,0,0.1-2,0.8-1.7
	c0,0,2.5,1.2,1.4,5.4c0,0-0.1,1.5,1.9,2.8c0,0,7.3-0.5,4.2,7.6c0,0,0.8,2.9,2,3.7c0,0,0.6,0.6,1.3,0.5c0,0,5.7,0.2,5.2,3.2
	c0,0-0.9,4.8,0.9,6.8c0,0,2.8,2.6,9.1-0.1c0,0,3.1-1.3,5.2,1.7c0,0,0.5-7.4,2.9-7.3c0,0,4.8-7.4,1-9.6c0,0-3.3-2.3-4.7-2.2
	c0,0-5.8-0.8-6-4.4c0,0,1.2-5.5,0.5-6.5c0,0-0.3-2.6-4.1-3.8c0,0-8-2.8-7.6-5.4c0,0,0.9-5.9,0.1-6.6c0,0-0.7-2.1-2.1-2.6
	c0,0-7.1-3.4-7.5-8c0,0-0.6-6.6,1.8-8.7c0,0,2.5-2.2,2.3,2.1c0,0-2.3,4.5,6.6,7.6c0,0,3.7-7.9,8.8-2.7c0,0,2.6-7.2,12.8-4.1
	c0,0,5.5,2.6,7.8,4c0,0,22.7,11.9,22.4,29.6c0,0,1.1,11.6-5.6,29.7c0,0,8.8,12.7,4.6,17c0,0-22.2,2.6-44.5-4.4
	C347.6,423.7,327.1,404.9,329.5,399.6L329.5,399.6z"/>
<path class="st6" d="M394.4,376.5c0,0,0.2-0.1,0.6-0.4c0.3-0.3,0.8-0.7,1.4-1.2c0.5-0.5,1.1-1.1,1.7-1.8c0.3-0.3,0.6-0.7,0.8-1.1
	c0.3-0.4,0.5-0.8,0.8-1.2c0.3-0.4,0.5-0.8,0.7-1.3c0.2-0.4,0.4-0.9,0.6-1.3s0.3-0.8,0.5-1.2c0.2-0.4,0.2-0.8,0.4-1.1
	c0.1-0.4,0.2-0.7,0.3-1c0.1-0.3,0.1-0.6,0.2-0.8c0.1-0.4,0.2-0.7,0.2-0.7v0.7c0,0.4,0,1.1-0.1,1.8c-0.1,0.4-0.1,0.8-0.2,1.2
	c-0.1,0.4-0.2,0.9-0.4,1.3s-0.3,0.9-0.5,1.4c-0.2,0.4-0.4,0.9-0.7,1.4c-0.3,0.4-0.5,0.9-0.9,1.3c-0.3,0.4-0.6,0.8-1,1.1
	c-0.3,0.4-0.7,0.6-1,0.9s-0.7,0.5-1,0.7c-0.6,0.4-1.2,0.7-1.6,0.9C394.7,376.4,394.4,376.5,394.4,376.5L394.4,376.5z"/>
<path class="st6" d="M396.4,379c0,0,0.5-0.5,1.5-0.9c0.3-0.1,0.5-0.2,0.8-0.2s0.6-0.1,1,0c0.3,0,0.7,0.1,1,0.1l1,0.3
	c0.3,0.2,0.7,0.3,0.9,0.5c0.3,0.2,0.6,0.4,0.8,0.6c0.5,0.4,0.9,0.9,1.2,1.3c0.3,0.4,0.5,0.8,0.7,1.1c0.1,0.3,0.2,0.4,0.2,0.4
	s-0.1-0.1-0.4-0.3c-0.2-0.2-0.5-0.5-0.9-0.8c-0.2-0.2-0.4-0.3-0.6-0.5s-0.5-0.3-0.7-0.5s-0.5-0.3-0.8-0.5s-0.6-0.3-0.8-0.4l-0.9-0.3
	c-0.3,0-0.6-0.2-0.9-0.2s-0.6-0.1-0.8-0.1h-0.8C397.1,378.7,396.4,379,396.4,379L396.4,379z"/>
<g>
	<path class="st3" d="M472.9,515.6c0,1.8-1.5,3.3-3.3,3.3c-1.8,0-3.3-1.5-3.3-3.3c0-0.9,0.3-1.7,0.9-2.3l2.4-6.1l2.5,6.1
		C472.6,513.9,472.9,514.8,472.9,515.6z"/>
</g>
</svg>
